<?xml version="1.0" encoding="UTF-8" standalone="no"?>
<!-- Created with Inkscape (http://www.inkscape.org/) -->

<svg
   xmlns:dc="http://purl.org/dc/elements/1.1/"
   xmlns:cc="http://creativecommons.org/ns#"
   xmlns:rdf="http://www.w3.org/1999/02/22-rdf-syntax-ns#"
   xmlns:svg="http://www.w3.org/2000/svg"
   xmlns="http://www.w3.org/2000/svg"
   version="1.1"
   width="210mm"
   height="297mm"
   id="svg3727">
  <defs
     id="defs3729" />
  <metadata
     id="metadata3732">
    <rdf:RDF>
      <cc:Work
         rdf:about="">
        <dc:format>image/svg+xml</dc:format>
        <dc:type
           rdf:resource="http://purl.org/dc/dcmitype/StillImage" />
        <dc:title></dc:title>
      </cc:Work>
    </rdf:RDF>
  </metadata>
  <g
     id="layer2">
    <rect
       width="690.94489"
       height="999.21259"
       x="26.574799"
       y="26.574799"
       id="rect4401"
       style="fill:#ffffff;fill-opacity:1;stroke:#000000;stroke-width:0.5;stroke-miterlimit:4;stroke-opacity:1;stroke-dasharray:none;display:inline" />
  </g>
  <g
     id="layer1">
    <g
       transform="translate(-1402.681,78.138256)"
       id="use5540"
       style="display:inline">
      <path
         d="m -561.6448,296.76807 a 103.03556,103.03556 0 1 1 -206.07112,0 103.03556,103.03556 0 1 1 206.07112,0 z"
         transform="matrix(0.79095084,0,0,0.79095084,1417.2676,-183.07645)"
         id="path6034"
         style="fill:none;stroke:#000000;stroke-width:0.63215053;stroke-miterlimit:4;stroke-opacity:1;stroke-dasharray:none" />
      <path
         d="m -561.6448,296.76807 a 103.03556,103.03556 0 1 1 -206.07112,0 103.03556,103.03556 0 1 1 206.07112,0 z"
         transform="matrix(0.65339417,0,0,0.65339417,1325.8364,-142.25402)"
         id="path6036"
         style="fill:none;stroke:#000000;stroke-width:0.38261744;stroke-miterlimit:4;stroke-opacity:1;stroke-dasharray:none;display:inline" />
    </g>
    <g
       transform="translate(-781.97908,57.048233)"
       id="use4495"
       style="display:inline">
      <path
         d="m -561.6448,296.76807 a 103.03556,103.03556 0 1 1 -206.07112,0 103.03556,103.03556 0 1 1 206.07112,0 z"
         transform="matrix(0.79095084,0,0,0.79095084,1417.2676,-183.07645)"
         id="path4683"
         style="fill:none;stroke:#000000;stroke-width:0.63215053;stroke-miterlimit:4;stroke-opacity:1;stroke-dasharray:none" />
      <path
         d="m -561.6448,296.76807 a 103.03556,103.03556 0 1 1 -206.07112,0 103.03556,103.03556 0 1 1 206.07112,0 z"
         transform="matrix(0.65339417,0,0,0.65339417,1325.8364,-142.25402)"
         id="path4685"
         style="fill:none;stroke:#000000;stroke-width:0.38261744;stroke-miterlimit:4;stroke-opacity:1;stroke-dasharray:none;display:inline" />
    </g>
    <g
       transform="translate(-781.97908,224.04033)"
       id="use4497"
       style="display:inline">
      <path
         d="m -561.6448,296.76807 a 103.03556,103.03556 0 1 1 -206.07112,0 103.03556,103.03556 0 1 1 206.07112,0 z"
         transform="matrix(0.79095084,0,0,0.79095084,1417.2676,-183.07645)"
         id="path4677"
         style="fill:none;stroke:#000000;stroke-width:0.63215053;stroke-miterlimit:4;stroke-opacity:1;stroke-dasharray:none" />
      <path
         d="m -561.6448,296.76807 a 103.03556,103.03556 0 1 1 -206.07112,0 103.03556,103.03556 0 1 1 206.07112,0 z"
         transform="matrix(0.65339417,0,0,0.65339417,1325.8364,-142.25402)"
         id="path4679"
         style="fill:none;stroke:#000000;stroke-width:0.38261744;stroke-miterlimit:4;stroke-opacity:1;stroke-dasharray:none;display:inline" />
    </g>
    <g
       transform="translate(-781.97908,391.03246)"
       id="use4499"
       style="display:inline">
      <path
         d="m -561.6448,296.76807 a 103.03556,103.03556 0 1 1 -206.07112,0 103.03556,103.03556 0 1 1 206.07112,0 z"
         transform="matrix(0.79095084,0,0,0.79095084,1417.2676,-183.07645)"
         id="path4671"
         style="fill:none;stroke:#000000;stroke-width:0.63215053;stroke-miterlimit:4;stroke-opacity:1;stroke-dasharray:none" />
      <path
         d="m -561.6448,296.76807 a 103.03556,103.03556 0 1 1 -206.07112,0 103.03556,103.03556 0 1 1 206.07112,0 z"
         transform="matrix(0.65339417,0,0,0.65339417,1325.8364,-142.25402)"
         id="path4673"
         style="fill:none;stroke:#000000;stroke-width:0.38261744;stroke-miterlimit:4;stroke-opacity:1;stroke-dasharray:none;display:inline" />
    </g>
    <g
       transform="translate(-781.97908,558.02464)"
       id="use4501"
       style="display:inline">
      <path
         d="m -561.6448,296.76807 a 103.03556,103.03556 0 1 1 -206.07112,0 103.03556,103.03556 0 1 1 206.07112,0 z"
         transform="matrix(0.79095084,0,0,0.79095084,1417.2676,-183.07645)"
         id="path4665"
         style="fill:none;stroke:#000000;stroke-width:0.63215053;stroke-miterlimit:4;stroke-opacity:1;stroke-dasharray:none" />
      <path
         d="m -561.6448,296.76807 a 103.03556,103.03556 0 1 1 -206.07112,0 103.03556,103.03556 0 1 1 206.07112,0 z"
         transform="matrix(0.65339417,0,0,0.65339417,1325.8364,-142.25402)"
         id="path4667"
         style="fill:none;stroke:#000000;stroke-width:0.38261744;stroke-miterlimit:4;stroke-opacity:1;stroke-dasharray:none;display:inline" />
    </g>
    <g
       transform="translate(-781.97908,725.01678)"
       id="use4503"
       style="display:inline">
      <path
         d="m -561.6448,296.76807 a 103.03556,103.03556 0 1 1 -206.07112,0 103.03556,103.03556 0 1 1 206.07112,0 z"
         transform="matrix(0.79095084,0,0,0.79095084,1417.2676,-183.07645)"
         id="path4659"
         style="fill:none;stroke:#000000;stroke-width:0.63215053;stroke-miterlimit:4;stroke-opacity:1;stroke-dasharray:none" />
      <path
         d="m -561.6448,296.76807 a 103.03556,103.03556 0 1 1 -206.07112,0 103.03556,103.03556 0 1 1 206.07112,0 z"
         transform="matrix(0.65339417,0,0,0.65339417,1325.8364,-142.25402)"
         id="path4661"
         style="fill:none;stroke:#000000;stroke-width:0.38261744;stroke-miterlimit:4;stroke-opacity:1;stroke-dasharray:none;display:inline" />
    </g>
    <g
       transform="translate(-781.97908,892.00891)"
       id="use4505"
       style="display:inline">
      <path
         d="m -561.6448,296.76807 a 103.03556,103.03556 0 1 1 -206.07112,0 103.03556,103.03556 0 1 1 206.07112,0 z"
         transform="matrix(0.79095084,0,0,0.79095084,1417.2676,-183.07645)"
         id="path4653"
         style="fill:none;stroke:#000000;stroke-width:0.63215053;stroke-miterlimit:4;stroke-opacity:1;stroke-dasharray:none" />
      <path
         d="m -561.6448,296.76807 a 103.03556,103.03556 0 1 1 -206.07112,0 103.03556,103.03556 0 1 1 206.07112,0 z"
         transform="matrix(0.65339417,0,0,0.65339417,1325.8364,-142.25402)"
         id="path4655"
         style="fill:none;stroke:#000000;stroke-width:0.38261744;stroke-miterlimit:4;stroke-opacity:1;stroke-dasharray:none;display:inline" />
    </g>
    <g
       transform="translate(-606.98693,57.048195)"
       id="use4507"
       style="display:inline">
      <path
         d="m -561.6448,296.76807 a 103.03556,103.03556 0 1 1 -206.07112,0 103.03556,103.03556 0 1 1 206.07112,0 z"
         transform="matrix(0.79095084,0,0,0.79095084,1417.2676,-183.07645)"
         id="path4647"
         style="fill:none;stroke:#000000;stroke-width:0.63215053;stroke-miterlimit:4;stroke-opacity:1;stroke-dasharray:none" />
      <path
         d="m -561.6448,296.76807 a 103.03556,103.03556 0 1 1 -206.07112,0 103.03556,103.03556 0 1 1 206.07112,0 z"
         transform="matrix(0.65339417,0,0,0.65339417,1325.8364,-142.25402)"
         id="path4649"
         style="fill:none;stroke:#000000;stroke-width:0.38261744;stroke-miterlimit:4;stroke-opacity:1;stroke-dasharray:none;display:inline" />
    </g>
    <g
       transform="translate(-606.98693,224.04037)"
       id="use4509"
       style="display:inline">
      <path
         d="m -561.6448,296.76807 a 103.03556,103.03556 0 1 1 -206.07112,0 103.03556,103.03556 0 1 1 206.07112,0 z"
         transform="matrix(0.79095084,0,0,0.79095084,1417.2676,-183.07645)"
         id="path4641"
         style="fill:none;stroke:#000000;stroke-width:0.63215053;stroke-miterlimit:4;stroke-opacity:1;stroke-dasharray:none" />
      <path
         d="m -561.6448,296.76807 a 103.03556,103.03556 0 1 1 -206.07112,0 103.03556,103.03556 0 1 1 206.07112,0 z"
         transform="matrix(0.65339417,0,0,0.65339417,1325.8364,-142.25402)"
         id="path4643"
         style="fill:none;stroke:#000000;stroke-width:0.38261744;stroke-miterlimit:4;stroke-opacity:1;stroke-dasharray:none;display:inline" />
    </g>
    <g
       transform="translate(-606.98693,391.03251)"
       id="use4511"
       style="display:inline">
      <path
         d="m -561.6448,296.76807 a 103.03556,103.03556 0 1 1 -206.07112,0 103.03556,103.03556 0 1 1 206.07112,0 z"
         transform="matrix(0.79095084,0,0,0.79095084,1417.2676,-183.07645)"
         id="path4635"
         style="fill:none;stroke:#000000;stroke-width:0.63215053;stroke-miterlimit:4;stroke-opacity:1;stroke-dasharray:none" />
      <path
         d="m -561.6448,296.76807 a 103.03556,103.03556 0 1 1 -206.07112,0 103.03556,103.03556 0 1 1 206.07112,0 z"
         transform="matrix(0.65339417,0,0,0.65339417,1325.8364,-142.25402)"
         id="path4637"
         style="fill:none;stroke:#000000;stroke-width:0.38261744;stroke-miterlimit:4;stroke-opacity:1;stroke-dasharray:none;display:inline" />
    </g>
    <g
       transform="translate(-606.98693,558.02462)"
       id="use4513"
       style="display:inline">
      <path
         d="m -561.6448,296.76807 a 103.03556,103.03556 0 1 1 -206.07112,0 103.03556,103.03556 0 1 1 206.07112,0 z"
         transform="matrix(0.79095084,0,0,0.79095084,1417.2676,-183.07645)"
         id="path4629"
         style="fill:none;stroke:#000000;stroke-width:0.63215053;stroke-miterlimit:4;stroke-opacity:1;stroke-dasharray:none" />
      <path
         d="m -561.6448,296.76807 a 103.03556,103.03556 0 1 1 -206.07112,0 103.03556,103.03556 0 1 1 206.07112,0 z"
         transform="matrix(0.65339417,0,0,0.65339417,1325.8364,-142.25402)"
         id="path4631"
         style="fill:none;stroke:#000000;stroke-width:0.38261744;stroke-miterlimit:4;stroke-opacity:1;stroke-dasharray:none;display:inline" />
    </g>
    <g
       transform="translate(-606.98693,725.01677)"
       id="use4515"
       style="display:inline">
      <path
         d="m -561.6448,296.76807 a 103.03556,103.03556 0 1 1 -206.07112,0 103.03556,103.03556 0 1 1 206.07112,0 z"
         transform="matrix(0.79095084,0,0,0.79095084,1417.2676,-183.07645)"
         id="path4623"
         style="fill:none;stroke:#000000;stroke-width:0.63215053;stroke-miterlimit:4;stroke-opacity:1;stroke-dasharray:none" />
      <path
         d="m -561.6448,296.76807 a 103.03556,103.03556 0 1 1 -206.07112,0 103.03556,103.03556 0 1 1 206.07112,0 z"
         transform="matrix(0.65339417,0,0,0.65339417,1325.8364,-142.25402)"
         id="path4625"
         style="fill:none;stroke:#000000;stroke-width:0.38261744;stroke-miterlimit:4;stroke-opacity:1;stroke-dasharray:none;display:inline" />
    </g>
    <g
       transform="translate(-606.98693,892.00891)"
       id="use4517"
       style="display:inline">
      <path
         d="m -561.6448,296.76807 a 103.03556,103.03556 0 1 1 -206.07112,0 103.03556,103.03556 0 1 1 206.07112,0 z"
         transform="matrix(0.79095084,0,0,0.79095084,1417.2676,-183.07645)"
         id="path4617"
         style="fill:none;stroke:#000000;stroke-width:0.63215053;stroke-miterlimit:4;stroke-opacity:1;stroke-dasharray:none" />
      <path
         d="m -561.6448,296.76807 a 103.03556,103.03556 0 1 1 -206.07112,0 103.03556,103.03556 0 1 1 206.07112,0 z"
         transform="matrix(0.65339417,0,0,0.65339417,1325.8364,-142.25402)"
         id="path4619"
         style="fill:none;stroke:#000000;stroke-width:0.38261744;stroke-miterlimit:4;stroke-opacity:1;stroke-dasharray:none;display:inline" />
    </g>
    <g
       transform="translate(-431.99479,57.048195)"
       id="use4519"
       style="display:inline">
      <path
         d="m -561.6448,296.76807 a 103.03556,103.03556 0 1 1 -206.07112,0 103.03556,103.03556 0 1 1 206.07112,0 z"
         transform="matrix(0.79095084,0,0,0.79095084,1417.2676,-183.07645)"
         id="path4611"
         style="fill:none;stroke:#000000;stroke-width:0.63215053;stroke-miterlimit:4;stroke-opacity:1;stroke-dasharray:none" />
      <path
         d="m -561.6448,296.76807 a 103.03556,103.03556 0 1 1 -206.07112,0 103.03556,103.03556 0 1 1 206.07112,0 z"
         transform="matrix(0.65339417,0,0,0.65339417,1325.8364,-142.25402)"
         id="path4613"
         style="fill:none;stroke:#000000;stroke-width:0.38261744;stroke-miterlimit:4;stroke-opacity:1;stroke-dasharray:none;display:inline" />
    </g>
    <g
       transform="translate(-431.99479,224.04037)"
       id="use4521"
       style="display:inline">
      <path
         d="m -561.6448,296.76807 a 103.03556,103.03556 0 1 1 -206.07112,0 103.03556,103.03556 0 1 1 206.07112,0 z"
         transform="matrix(0.79095084,0,0,0.79095084,1417.2676,-183.07645)"
         id="path4605"
         style="fill:none;stroke:#000000;stroke-width:0.63215053;stroke-miterlimit:4;stroke-opacity:1;stroke-dasharray:none" />
      <path
         d="m -561.6448,296.76807 a 103.03556,103.03556 0 1 1 -206.07112,0 103.03556,103.03556 0 1 1 206.07112,0 z"
         transform="matrix(0.65339417,0,0,0.65339417,1325.8364,-142.25402)"
         id="path4607"
         style="fill:none;stroke:#000000;stroke-width:0.38261744;stroke-miterlimit:4;stroke-opacity:1;stroke-dasharray:none;display:inline" />
    </g>
    <g
       transform="translate(-431.99479,391.03251)"
       id="use4523"
       style="display:inline">
      <path
         d="m -561.6448,296.76807 a 103.03556,103.03556 0 1 1 -206.07112,0 103.03556,103.03556 0 1 1 206.07112,0 z"
         transform="matrix(0.79095084,0,0,0.79095084,1417.2676,-183.07645)"
         id="path4599"
         style="fill:none;stroke:#000000;stroke-width:0.63215053;stroke-miterlimit:4;stroke-opacity:1;stroke-dasharray:none" />
      <path
         d="m -561.6448,296.76807 a 103.03556,103.03556 0 1 1 -206.07112,0 103.03556,103.03556 0 1 1 206.07112,0 z"
         transform="matrix(0.65339417,0,0,0.65339417,1325.8364,-142.25402)"
         id="path4601"
         style="fill:none;stroke:#000000;stroke-width:0.38261744;stroke-miterlimit:4;stroke-opacity:1;stroke-dasharray:none;display:inline" />
    </g>
    <g
       transform="translate(-431.99479,558.02462)"
       id="use4525"
       style="display:inline">
      <path
         d="m -561.6448,296.76807 a 103.03556,103.03556 0 1 1 -206.07112,0 103.03556,103.03556 0 1 1 206.07112,0 z"
         transform="matrix(0.79095084,0,0,0.79095084,1417.2676,-183.07645)"
         id="path4593"
         style="fill:none;stroke:#000000;stroke-width:0.63215053;stroke-miterlimit:4;stroke-opacity:1;stroke-dasharray:none" />
      <path
         d="m -561.6448,296.76807 a 103.03556,103.03556 0 1 1 -206.07112,0 103.03556,103.03556 0 1 1 206.07112,0 z"
         transform="matrix(0.65339417,0,0,0.65339417,1325.8364,-142.25402)"
         id="path4595"
         style="fill:none;stroke:#000000;stroke-width:0.38261744;stroke-miterlimit:4;stroke-opacity:1;stroke-dasharray:none;display:inline" />
    </g>
    <g
       transform="translate(-431.99479,725.01677)"
       id="use4527"
       style="display:inline">
      <path
         d="m -561.6448,296.76807 a 103.03556,103.03556 0 1 1 -206.07112,0 103.03556,103.03556 0 1 1 206.07112,0 z"
         transform="matrix(0.79095084,0,0,0.79095084,1417.2676,-183.07645)"
         id="path4587"
         style="fill:none;stroke:#000000;stroke-width:0.63215053;stroke-miterlimit:4;stroke-opacity:1;stroke-dasharray:none" />
      <path
         d="m -561.6448,296.76807 a 103.03556,103.03556 0 1 1 -206.07112,0 103.03556,103.03556 0 1 1 206.07112,0 z"
         transform="matrix(0.65339417,0,0,0.65339417,1325.8364,-142.25402)"
         id="path4589"
         style="fill:none;stroke:#000000;stroke-width:0.38261744;stroke-miterlimit:4;stroke-opacity:1;stroke-dasharray:none;display:inline" />
    </g>
    <g
       transform="translate(-431.99479,892.00891)"
       id="use4529"
       style="display:inline">
      <path
         d="m -561.6448,296.76807 a 103.03556,103.03556 0 1 1 -206.07112,0 103.03556,103.03556 0 1 1 206.07112,0 z"
         transform="matrix(0.79095084,0,0,0.79095084,1417.2676,-183.07645)"
         id="path4581"
         style="fill:none;stroke:#000000;stroke-width:0.63215053;stroke-miterlimit:4;stroke-opacity:1;stroke-dasharray:none" />
      <path
         d="m -561.6448,296.76807 a 103.03556,103.03556 0 1 1 -206.07112,0 103.03556,103.03556 0 1 1 206.07112,0 z"
         transform="matrix(0.65339417,0,0,0.65339417,1325.8364,-142.25402)"
         id="path4583"
         style="fill:none;stroke:#000000;stroke-width:0.38261744;stroke-miterlimit:4;stroke-opacity:1;stroke-dasharray:none;display:inline" />
    </g>
    <g
       transform="translate(-257.00268,57.048233)"
       id="use4531"
       style="display:inline">
      <path
         d="m -561.6448,296.76807 a 103.03556,103.03556 0 1 1 -206.07112,0 103.03556,103.03556 0 1 1 206.07112,0 z"
         transform="matrix(0.79095084,0,0,0.79095084,1417.2676,-183.07645)"
         id="path4575"
         style="fill:none;stroke:#000000;stroke-width:0.63215053;stroke-miterlimit:4;stroke-opacity:1;stroke-dasharray:none" />
      <path
         d="m -561.6448,296.76807 a 103.03556,103.03556 0 1 1 -206.07112,0 103.03556,103.03556 0 1 1 206.07112,0 z"
         transform="matrix(0.65339417,0,0,0.65339417,1325.8364,-142.25402)"
         id="path4577"
         style="fill:none;stroke:#000000;stroke-width:0.38261744;stroke-miterlimit:4;stroke-opacity:1;stroke-dasharray:none;display:inline" />
    </g>
    <g
       transform="translate(-257.00268,224.04033)"
       id="use4533"
       style="display:inline">
      <path
         d="m -561.6448,296.76807 a 103.03556,103.03556 0 1 1 -206.07112,0 103.03556,103.03556 0 1 1 206.07112,0 z"
         transform="matrix(0.79095084,0,0,0.79095084,1417.2676,-183.07645)"
         id="path4569"
         style="fill:none;stroke:#000000;stroke-width:0.63215053;stroke-miterlimit:4;stroke-opacity:1;stroke-dasharray:none" />
      <path
         d="m -561.6448,296.76807 a 103.03556,103.03556 0 1 1 -206.07112,0 103.03556,103.03556 0 1 1 206.07112,0 z"
         transform="matrix(0.65339417,0,0,0.65339417,1325.8364,-142.25402)"
         id="path4571"
         style="fill:none;stroke:#000000;stroke-width:0.38261744;stroke-miterlimit:4;stroke-opacity:1;stroke-dasharray:none;display:inline" />
    </g>
    <g
       transform="translate(-257.00268,391.03246)"
       id="use4535"
       style="display:inline">
      <path
         d="m -561.6448,296.76807 a 103.03556,103.03556 0 1 1 -206.07112,0 103.03556,103.03556 0 1 1 206.07112,0 z"
         transform="matrix(0.79095084,0,0,0.79095084,1417.2676,-183.07645)"
         id="path4563"
         style="fill:none;stroke:#000000;stroke-width:0.63215053;stroke-miterlimit:4;stroke-opacity:1;stroke-dasharray:none" />
      <path
         d="m -561.6448,296.76807 a 103.03556,103.03556 0 1 1 -206.07112,0 103.03556,103.03556 0 1 1 206.07112,0 z"
         transform="matrix(0.65339417,0,0,0.65339417,1325.8364,-142.25402)"
         id="path4565"
         style="fill:none;stroke:#000000;stroke-width:0.38261744;stroke-miterlimit:4;stroke-opacity:1;stroke-dasharray:none;display:inline" />
    </g>
    <g
       transform="translate(-257.00268,558.02464)"
       id="use4537"
       style="display:inline">
      <path
         d="m -561.6448,296.76807 a 103.03556,103.03556 0 1 1 -206.07112,0 103.03556,103.03556 0 1 1 206.07112,0 z"
         transform="matrix(0.79095084,0,0,0.79095084,1417.2676,-183.07645)"
         id="path4557"
         style="fill:none;stroke:#000000;stroke-width:0.63215053;stroke-miterlimit:4;stroke-opacity:1;stroke-dasharray:none" />
      <path
         d="m -561.6448,296.76807 a 103.03556,103.03556 0 1 1 -206.07112,0 103.03556,103.03556 0 1 1 206.07112,0 z"
         transform="matrix(0.65339417,0,0,0.65339417,1325.8364,-142.25402)"
         id="path4559"
         style="fill:none;stroke:#000000;stroke-width:0.38261744;stroke-miterlimit:4;stroke-opacity:1;stroke-dasharray:none;display:inline" />
    </g>
    <g
       transform="translate(-257.00268,725.01678)"
       id="use4539"
       style="display:inline">
      <path
         d="m -561.6448,296.76807 a 103.03556,103.03556 0 1 1 -206.07112,0 103.03556,103.03556 0 1 1 206.07112,0 z"
         transform="matrix(0.79095084,0,0,0.79095084,1417.2676,-183.07645)"
         id="path4551"
         style="fill:none;stroke:#000000;stroke-width:0.63215053;stroke-miterlimit:4;stroke-opacity:1;stroke-dasharray:none" />
      <path
         d="m -561.6448,296.76807 a 103.03556,103.03556 0 1 1 -206.07112,0 103.03556,103.03556 0 1 1 206.07112,0 z"
         transform="matrix(0.65339417,0,0,0.65339417,1325.8364,-142.25402)"
         id="path4553"
         style="fill:none;stroke:#000000;stroke-width:0.38261744;stroke-miterlimit:4;stroke-opacity:1;stroke-dasharray:none;display:inline" />
    </g>
    <g
       transform="translate(-257.00268,892.00891)"
       id="use4541"
       style="display:inline">
      <path
         d="m -561.6448,296.76807 a 103.03556,103.03556 0 1 1 -206.07112,0 103.03556,103.03556 0 1 1 206.07112,0 z"
         transform="matrix(0.79095084,0,0,0.79095084,1417.2676,-183.07645)"
         id="path4545"
         style="fill:none;stroke:#000000;stroke-width:0.63215053;stroke-miterlimit:4;stroke-opacity:1;stroke-dasharray:none" />
      <path
         d="m -561.6448,296.76807 a 103.03556,103.03556 0 1 1 -206.07112,0 103.03556,103.03556 0 1 1 206.07112,0 z"
         transform="matrix(0.65339417,0,0,0.65339417,1325.8364,-142.25402)"
         id="path4547"
         style="fill:none;stroke:#000000;stroke-width:0.38261744;stroke-miterlimit:4;stroke-opacity:1;stroke-dasharray:none;display:inline" />
    </g>
  </g>
</svg>
