<?xml version="1.0" encoding="UTF-8" standalone="no"?>
<!-- Created with Inkscape (http://www.inkscape.org/) -->

<svg
   xmlns:dc="http://purl.org/dc/elements/1.1/"
   xmlns:cc="http://creativecommons.org/ns#"
   xmlns:rdf="http://www.w3.org/1999/02/22-rdf-syntax-ns#"
   xmlns:svg="http://www.w3.org/2000/svg"
   xmlns="http://www.w3.org/2000/svg"
   xmlns:sodipodi="http://sodipodi.sourceforge.net/DTD/sodipodi-0.dtd"
   xmlns:inkscape="http://www.inkscape.org/namespaces/inkscape"
   version="1.1"
   width="210mm"
   height="297mm"
   id="svg3727"
   inkscape:version="0.48.3.1 r9886"
   sodipodi:docname="BUTTONVORLAGE25_2.svg">
  <sodipodi:namedview
     pagecolor="#ffffff"
     bordercolor="#666666"
     borderopacity="1"
     objecttolerance="10"
     gridtolerance="10"
     guidetolerance="10"
     inkscape:pageopacity="0"
     inkscape:pageshadow="2"
     inkscape:window-width="1366"
     inkscape:window-height="718"
     id="namedview44103"
     showgrid="false"
     inkscape:zoom="0.7061495"
     inkscape:cx="112.73342"
     inkscape:cy="883.30152"
     inkscape:window-x="0"
     inkscape:window-y="0"
     inkscape:window-maximized="1"
     inkscape:current-layer="layer2" />
  <defs
     id="defs3729" />
  <metadata
     id="metadata3732">
    <rdf:RDF>
      <cc:Work
         rdf:about="">
        <dc:format>image/svg+xml</dc:format>
        <dc:type
           rdf:resource="http://purl.org/dc/dcmitype/StillImage" />
        <dc:title></dc:title>
      </cc:Work>
    </rdf:RDF>
  </metadata>
  <rect
     style="fill:#ffffff;fill-opacity:1;stroke:#000000;stroke-width:0.5;stroke-miterlimit:4;stroke-opacity:1;stroke-dasharray:none;display:inline"
     id="rect4401"
     y="26.574799"
     x="26.574799"
     height="999.21259"
     width="690.94489" />
  <g
     style="display:inline"
     id="use5540"
     transform="translate(-1402.681,78.138256)">
    <path
       inkscape:connector-curvature="0"
       style="fill:none;stroke:#000000;stroke-width:0.63215053;stroke-miterlimit:4;stroke-opacity:1;stroke-dasharray:none"
       id="path6034"
       transform="matrix(0.79095084,0,0,0.79095084,1417.2676,-183.07645)"
       d="m -561.6448,296.76807 a 103.03556,103.03556 0 1 1 -206.07112,0 103.03556,103.03556 0 1 1 206.07112,0 z" />
    <path
       inkscape:connector-curvature="0"
       style="fill:none;stroke:#000000;stroke-width:0.38261744;stroke-miterlimit:4;stroke-opacity:1;stroke-dasharray:none;display:inline"
       id="path6036"
       transform="matrix(0.65339417,0,0,0.65339417,1325.8364,-142.25402)"
       d="m -561.6448,296.76807 a 103.03556,103.03556 0 1 1 -206.07112,0 103.03556,103.03556 0 1 1 206.07112,0 z" />
  </g>
  <g
     id="g44682"
     transform="translate(21.911436,3.5330995)">
    <g
       id="g44208">
      <path
         d="m 672.27984,963.41866 a 58.285768,58.285768 0 0 1 -116.57153,0 58.285768,58.285768 0 1 1 116.57153,0 z"
         id="path44255"
         style="fill:none;stroke:#000000;stroke-width:0.35759866;stroke-miterlimit:4;stroke-opacity:1;stroke-dasharray:none"
         inkscape:connector-curvature="0" />
      <path
         inkscape:connector-curvature="0"
         style="fill:none;stroke:#000000;stroke-width:0.35759866;stroke-miterlimit:4;stroke-opacity:1;stroke-dasharray:none"
         id="path44261"
         d="m 276.49243,963.41866 a 58.285768,58.285768 0 0 1 -116.57153,0 58.285768,58.285768 0 1 1 116.57153,0 z" />
      <path
         d="m 144.5633,963.41866 a 58.285768,58.285768 0 0 1 -116.57153,0 58.285768,58.285768 0 1 1 116.57153,0 z"
         id="path44267"
         style="fill:none;stroke:#000000;stroke-width:0.35759866;stroke-miterlimit:4;stroke-opacity:1;stroke-dasharray:none"
         inkscape:connector-curvature="0" />
      <path
         inkscape:connector-curvature="0"
         style="fill:none;stroke:#000000;stroke-width:0.35759866;stroke-miterlimit:4;stroke-opacity:1;stroke-dasharray:none"
         id="path44273"
         d="m 408.42157,837.48953 a 58.285768,58.285768 0 0 1 -116.57153,0 58.285768,58.285768 0 1 1 116.57153,0 z" />
      <path
         d="m 144.5633,837.48953 a 58.285768,58.285768 0 0 1 -116.57153,0 58.285768,58.285768 0 1 1 116.57153,0 z"
         id="path44279"
         style="fill:none;stroke:#000000;stroke-width:0.35759866;stroke-miterlimit:4;stroke-opacity:1;stroke-dasharray:none"
         inkscape:connector-curvature="0" />
      <path
         inkscape:connector-curvature="0"
         style="fill:none;stroke:#000000;stroke-width:0.35759866;stroke-miterlimit:4;stroke-opacity:1;stroke-dasharray:none"
         id="path44285"
         d="m 672.27984,711.56039 a 58.285768,58.285768 0 0 1 -116.57153,0 58.285768,58.285768 0 1 1 116.57153,0 z" />
      <path
         d="m 276.49243,711.56039 a 58.285768,58.285768 0 0 1 -116.57153,0 58.285768,58.285768 0 1 1 116.57153,0 z"
         id="path44291"
         style="fill:none;stroke:#000000;stroke-width:0.35759866;stroke-miterlimit:4;stroke-opacity:1;stroke-dasharray:none"
         inkscape:connector-curvature="0" />
      <path
         inkscape:connector-curvature="0"
         style="fill:none;stroke:#000000;stroke-width:0.35759866;stroke-miterlimit:4;stroke-opacity:1;stroke-dasharray:none"
         id="path44297"
         d="m 144.5633,711.56039 a 58.285768,58.285768 0 0 1 -116.57153,0 58.285768,58.285768 0 1 1 116.57153,0 z" />
      <path
         d="m 408.42157,585.63126 a 58.285768,58.285768 0 0 1 -116.57153,0 58.285768,58.285768 0 1 1 116.57153,0 z"
         id="path44303"
         style="fill:none;stroke:#000000;stroke-width:0.35759866;stroke-miterlimit:4;stroke-opacity:1;stroke-dasharray:none"
         inkscape:connector-curvature="0" />
      <path
         inkscape:connector-curvature="0"
         style="fill:none;stroke:#000000;stroke-width:0.35759866;stroke-miterlimit:4;stroke-opacity:1;stroke-dasharray:none"
         id="path44309"
         d="m 276.49243,585.63126 a 58.285768,58.285768 0 0 1 -116.57153,0 58.285768,58.285768 0 1 1 116.57153,0 z" />
      <path
         d="m 672.27984,459.70213 a 58.285768,58.285768 0 0 1 -116.57153,0 58.285768,58.285768 0 1 1 116.57153,0 z"
         id="path44315"
         style="fill:none;stroke:#000000;stroke-width:0.35759866;stroke-miterlimit:4;stroke-opacity:1;stroke-dasharray:none"
         inkscape:connector-curvature="0" />
      <path
         inkscape:connector-curvature="0"
         style="fill:none;stroke:#000000;stroke-width:0.35759866;stroke-miterlimit:4;stroke-opacity:1;stroke-dasharray:none"
         id="path44321"
         d="m 276.49243,459.70213 a 58.285768,58.285768 0 0 1 -116.57153,0 58.285768,58.285768 0 1 1 116.57153,0 z" />
      <path
         d="m 144.5633,459.70213 a 58.285768,58.285768 0 0 1 -116.57153,0 58.285768,58.285768 0 1 1 116.57153,0 z"
         id="path44327"
         style="fill:none;stroke:#000000;stroke-width:0.35759866;stroke-miterlimit:4;stroke-opacity:1;stroke-dasharray:none"
         inkscape:connector-curvature="0" />
      <path
         inkscape:connector-curvature="0"
         style="fill:none;stroke:#000000;stroke-width:0.35759866;stroke-miterlimit:4;stroke-opacity:1;stroke-dasharray:none"
         id="path44333"
         d="m 408.42157,333.773 a 58.285768,58.285768 0 0 1 -116.57153,0 58.285768,58.285768 0 1 1 116.57153,0 z" />
      <path
         d="m 144.5633,333.773 a 58.285768,58.285768 0 0 1 -116.57153,0 58.285768,58.285768 0 1 1 116.57153,0 z"
         id="path44339"
         style="fill:none;stroke:#000000;stroke-width:0.35759866;stroke-miterlimit:4;stroke-opacity:1;stroke-dasharray:none"
         inkscape:connector-curvature="0" />
      <path
         inkscape:connector-curvature="0"
         style="fill:none;stroke:#000000;stroke-width:0.35759866;stroke-miterlimit:4;stroke-opacity:1;stroke-dasharray:none"
         id="path44345"
         d="m 672.27984,207.84386 a 58.285768,58.285768 0 0 1 -116.57153,0 58.285768,58.285768 0 1 1 116.57153,0 z" />
      <path
         d="m 276.49243,207.84386 a 58.285768,58.285768 0 0 1 -116.57153,0 58.285768,58.285768 0 1 1 116.57153,0 z"
         id="path44351"
         style="fill:none;stroke:#000000;stroke-width:0.35759866;stroke-miterlimit:4;stroke-opacity:1;stroke-dasharray:none"
         inkscape:connector-curvature="0" />
      <path
         inkscape:connector-curvature="0"
         style="fill:none;stroke:#000000;stroke-width:0.35759866;stroke-miterlimit:4;stroke-opacity:1;stroke-dasharray:none"
         id="path44357"
         d="m 144.5633,207.84386 a 58.285768,58.285768 0 0 1 -116.57153,0 58.285768,58.285768 0 1 1 116.57153,0 z" />
      <path
         d="m 408.42157,81.914725 a 58.285768,58.285768 0 0 1 -116.57153,0 58.285768,58.285768 0 1 1 116.57153,0 z"
         id="path44363"
         style="fill:none;stroke:#000000;stroke-width:0.35759866;stroke-miterlimit:4;stroke-opacity:1;stroke-dasharray:none"
         inkscape:connector-curvature="0" />
      <path
         inkscape:connector-curvature="0"
         style="fill:none;stroke:#000000;stroke-width:0.35759866;stroke-miterlimit:4;stroke-opacity:1;stroke-dasharray:none"
         id="path44369"
         d="m 276.49243,81.914725 a 58.285768,58.285768 0 0 1 -116.57153,0 58.285768,58.285768 0 1 1 116.57153,0 z" />
      <path
         inkscape:connector-curvature="0"
         style="fill:none;stroke:#000000;stroke-width:0.35759866;stroke-miterlimit:4;stroke-opacity:1;stroke-dasharray:none"
         id="path44399"
         d="m 540.3507,963.41866 a 58.285768,58.285768 0 0 1 -116.57153,0 58.285768,58.285768 0 1 1 116.57153,0 z" />
      <path
         d="m 408.42157,963.41866 a 58.285768,58.285768 0 0 1 -116.57153,0 58.285768,58.285768 0 1 1 116.57153,0 z"
         id="path44405"
         style="fill:none;stroke:#000000;stroke-width:0.35759866;stroke-miterlimit:4;stroke-opacity:1;stroke-dasharray:none"
         inkscape:connector-curvature="0" />
      <path
         inkscape:connector-curvature="0"
         style="fill:none;stroke:#000000;stroke-width:0.35759866;stroke-miterlimit:4;stroke-opacity:1;stroke-dasharray:none"
         id="path44411"
         d="m 672.27984,837.48953 a 58.285768,58.285768 0 0 1 -116.57153,0 58.285768,58.285768 0 1 1 116.57153,0 z" />
      <path
         d="m 540.3507,837.48953 a 58.285768,58.285768 0 0 1 -116.57153,0 58.285768,58.285768 0 1 1 116.57153,0 z"
         id="path44417"
         style="fill:none;stroke:#000000;stroke-width:0.35759866;stroke-miterlimit:4;stroke-opacity:1;stroke-dasharray:none"
         inkscape:connector-curvature="0" />
      <path
         inkscape:connector-curvature="0"
         style="fill:none;stroke:#000000;stroke-width:0.35759866;stroke-miterlimit:4;stroke-opacity:1;stroke-dasharray:none"
         id="path44423"
         d="m 276.49243,837.48953 a 58.285768,58.285768 0 0 1 -116.57153,0 58.285768,58.285768 0 1 1 116.57153,0 z" />
      <path
         d="m 540.3507,711.56039 a 58.285768,58.285768 0 0 1 -116.57153,0 58.285768,58.285768 0 1 1 116.57153,0 z"
         id="path44429"
         style="fill:none;stroke:#000000;stroke-width:0.35759866;stroke-miterlimit:4;stroke-opacity:1;stroke-dasharray:none"
         inkscape:connector-curvature="0" />
      <path
         inkscape:connector-curvature="0"
         style="fill:none;stroke:#000000;stroke-width:0.35759866;stroke-miterlimit:4;stroke-opacity:1;stroke-dasharray:none"
         id="path44435"
         d="m 408.42157,711.56039 a 58.285768,58.285768 0 0 1 -116.57153,0 58.285768,58.285768 0 1 1 116.57153,0 z" />
      <path
         d="m 672.27984,585.63126 a 58.285768,58.285768 0 0 1 -116.57153,0 58.285768,58.285768 0 1 1 116.57153,0 z"
         id="path44441"
         style="fill:none;stroke:#000000;stroke-width:0.35759866;stroke-miterlimit:4;stroke-opacity:1;stroke-dasharray:none"
         inkscape:connector-curvature="0" />
      <path
         inkscape:connector-curvature="0"
         style="fill:none;stroke:#000000;stroke-width:0.35759866;stroke-miterlimit:4;stroke-opacity:1;stroke-dasharray:none"
         id="path44447"
         d="m 540.3507,585.63126 a 58.285768,58.285768 0 0 1 -116.57153,0 58.285768,58.285768 0 1 1 116.57153,0 z" />
      <path
         d="m 144.5633,585.63126 a 58.285768,58.285768 0 0 1 -116.57153,0 58.285768,58.285768 0 1 1 116.57153,0 z"
         id="path44453"
         style="fill:none;stroke:#000000;stroke-width:0.35759866;stroke-miterlimit:4;stroke-opacity:1;stroke-dasharray:none"
         inkscape:connector-curvature="0" />
      <path
         inkscape:connector-curvature="0"
         style="fill:none;stroke:#000000;stroke-width:0.35759866;stroke-miterlimit:4;stroke-opacity:1;stroke-dasharray:none"
         id="path44459"
         d="m 540.3507,459.70213 a 58.285768,58.285768 0 0 1 -116.57153,0 58.285768,58.285768 0 1 1 116.57153,0 z" />
      <path
         d="m 408.42157,459.70213 a 58.285768,58.285768 0 0 1 -116.57153,0 58.285768,58.285768 0 1 1 116.57153,0 z"
         id="path44465"
         style="fill:none;stroke:#000000;stroke-width:0.35759866;stroke-miterlimit:4;stroke-opacity:1;stroke-dasharray:none"
         inkscape:connector-curvature="0" />
      <path
         inkscape:connector-curvature="0"
         style="fill:none;stroke:#000000;stroke-width:0.35759866;stroke-miterlimit:4;stroke-opacity:1;stroke-dasharray:none"
         id="path44471"
         d="m 672.27984,333.773 a 58.285768,58.285768 0 0 1 -116.57153,0 58.285768,58.285768 0 1 1 116.57153,0 z" />
      <path
         d="m 540.3507,333.773 a 58.285768,58.285768 0 0 1 -116.57153,0 58.285768,58.285768 0 1 1 116.57153,0 z"
         id="path44477"
         style="fill:none;stroke:#000000;stroke-width:0.35759866;stroke-miterlimit:4;stroke-opacity:1;stroke-dasharray:none"
         inkscape:connector-curvature="0" />
      <path
         inkscape:connector-curvature="0"
         style="fill:none;stroke:#000000;stroke-width:0.35759866;stroke-miterlimit:4;stroke-opacity:1;stroke-dasharray:none"
         id="path44483"
         d="m 276.49243,333.773 a 58.285768,58.285768 0 0 1 -116.57153,0 58.285768,58.285768 0 1 1 116.57153,0 z" />
      <path
         d="m 540.3507,207.84386 a 58.285768,58.285768 0 0 1 -116.57153,0 58.285768,58.285768 0 1 1 116.57153,0 z"
         id="path44489"
         style="fill:none;stroke:#000000;stroke-width:0.35759866;stroke-miterlimit:4;stroke-opacity:1;stroke-dasharray:none"
         inkscape:connector-curvature="0" />
      <path
         inkscape:connector-curvature="0"
         style="fill:none;stroke:#000000;stroke-width:0.35759866;stroke-miterlimit:4;stroke-opacity:1;stroke-dasharray:none"
         id="path44495"
         d="m 408.42157,207.84386 a 58.285768,58.285768 0 0 1 -116.57153,0 58.285768,58.285768 0 1 1 116.57153,0 z" />
      <path
         d="m 672.27984,81.914725 a 58.285768,58.285768 0 0 1 -116.57153,0 58.285768,58.285768 0 1 1 116.57153,0 z"
         id="path44501"
         style="fill:none;stroke:#000000;stroke-width:0.35759866;stroke-miterlimit:4;stroke-opacity:1;stroke-dasharray:none"
         inkscape:connector-curvature="0" />
      <path
         inkscape:connector-curvature="0"
         style="fill:none;stroke:#000000;stroke-width:0.35759866;stroke-miterlimit:4;stroke-opacity:1;stroke-dasharray:none"
         id="path44507"
         d="m 540.3507,81.914725 a 58.285768,58.285768 0 0 1 -116.57153,0 58.285768,58.285768 0 1 1 116.57153,0 z" />
      <path
         d="m 144.5633,81.914725 a 58.285768,58.285768 0 0 1 -116.57153,0 58.285768,58.285768 0 1 1 116.57153,0 z"
         id="path44513"
         style="fill:none;stroke:#000000;stroke-width:0.35759866;stroke-miterlimit:4;stroke-opacity:1;stroke-dasharray:none"
         inkscape:connector-curvature="0" />
    </g>
  </g>
  <g
     inkscape:groupmode="layer"
     id="layer2"
     inkscape:label="inhalt"
     style="display:inline" />
  <g
     inkscape:groupmode="layer"
     id="layer1"
     inkscape:label="innen"
     style="display:inline">
    <g
       id="g44597"
       transform="translate(21.786416,3.6476319)">
      <path
         d="m 658.32835,963.29483 a 44.209256,44.209256 0 0 1 -88.41851,0 44.209256,44.209256 0 1 1 88.41851,0 z"
         id="path44257"
         style="fill:none;stroke:#000000;stroke-width:0.16416886;stroke-miterlimit:4;stroke-opacity:1;stroke-dasharray:none;display:inline"
         inkscape:connector-curvature="0" />
      <path
         inkscape:connector-curvature="0"
         style="fill:none;stroke:#000000;stroke-width:0.16416886;stroke-miterlimit:4;stroke-opacity:1;stroke-dasharray:none;display:inline"
         id="path44263"
         d="m 262.54094,963.29483 a 44.209256,44.209256 0 0 1 -88.41851,0 44.209256,44.209256 0 1 1 88.41851,0 z" />
      <path
         d="m 130.61181,963.29483 a 44.209256,44.209256 0 0 1 -88.41851,0 44.209256,44.209256 0 1 1 88.41851,0 z"
         id="path44269"
         style="fill:none;stroke:#000000;stroke-width:0.16416886;stroke-miterlimit:4;stroke-opacity:1;stroke-dasharray:none;display:inline"
         inkscape:connector-curvature="0" />
      <path
         inkscape:connector-curvature="0"
         style="fill:none;stroke:#000000;stroke-width:0.16416886;stroke-miterlimit:4;stroke-opacity:1;stroke-dasharray:none;display:inline"
         id="path44275"
         d="m 394.47008,837.3657 a 44.209256,44.209256 0 0 1 -88.41851,0 44.209256,44.209256 0 1 1 88.41851,0 z" />
      <path
         d="m 130.61181,837.3657 a 44.209256,44.209256 0 0 1 -88.41851,0 44.209256,44.209256 0 1 1 88.41851,0 z"
         id="path44281"
         style="fill:none;stroke:#000000;stroke-width:0.16416886;stroke-miterlimit:4;stroke-opacity:1;stroke-dasharray:none;display:inline"
         inkscape:connector-curvature="0" />
      <path
         inkscape:connector-curvature="0"
         style="fill:none;stroke:#000000;stroke-width:0.16416886;stroke-miterlimit:4;stroke-opacity:1;stroke-dasharray:none;display:inline"
         id="path44287"
         d="m 658.32835,711.43656 a 44.209256,44.209256 0 0 1 -88.41851,0 44.209256,44.209256 0 1 1 88.41851,0 z" />
      <path
         d="m 262.54094,711.43656 a 44.209256,44.209256 0 0 1 -88.41851,0 44.209256,44.209256 0 1 1 88.41851,0 z"
         id="path44293"
         style="fill:none;stroke:#000000;stroke-width:0.16416886;stroke-miterlimit:4;stroke-opacity:1;stroke-dasharray:none;display:inline"
         inkscape:connector-curvature="0" />
      <path
         inkscape:connector-curvature="0"
         style="fill:none;stroke:#000000;stroke-width:0.16416886;stroke-miterlimit:4;stroke-opacity:1;stroke-dasharray:none;display:inline"
         id="path44299"
         d="m 130.61181,711.43656 a 44.209256,44.209256 0 0 1 -88.41851,0 44.209256,44.209256 0 1 1 88.41851,0 z" />
      <path
         d="m 394.47008,585.50743 a 44.209256,44.209256 0 0 1 -88.41851,0 44.209256,44.209256 0 1 1 88.41851,0 z"
         id="path44305"
         style="fill:none;stroke:#000000;stroke-width:0.16416886;stroke-miterlimit:4;stroke-opacity:1;stroke-dasharray:none;display:inline"
         inkscape:connector-curvature="0" />
      <path
         inkscape:connector-curvature="0"
         style="fill:none;stroke:#000000;stroke-width:0.16416886;stroke-miterlimit:4;stroke-opacity:1;stroke-dasharray:none;display:inline"
         id="path44311"
         d="m 262.54094,585.50743 a 44.209256,44.209256 0 0 1 -88.41851,0 44.209256,44.209256 0 1 1 88.41851,0 z" />
      <path
         d="m 658.32835,459.5783 a 44.209256,44.209256 0 0 1 -88.41851,0 44.209256,44.209256 0 1 1 88.41851,0 z"
         id="path44317"
         style="fill:none;stroke:#000000;stroke-width:0.16416886;stroke-miterlimit:4;stroke-opacity:1;stroke-dasharray:none;display:inline"
         inkscape:connector-curvature="0" />
      <path
         inkscape:connector-curvature="0"
         style="fill:none;stroke:#000000;stroke-width:0.16416886;stroke-miterlimit:4;stroke-opacity:1;stroke-dasharray:none;display:inline"
         id="path44323"
         d="m 262.54094,459.5783 a 44.209256,44.209256 0 0 1 -88.41851,0 44.209256,44.209256 0 1 1 88.41851,0 z" />
      <path
         d="m 130.61181,459.5783 a 44.209256,44.209256 0 0 1 -88.41851,0 44.209256,44.209256 0 1 1 88.41851,0 z"
         id="path44329"
         style="fill:none;stroke:#000000;stroke-width:0.16416886;stroke-miterlimit:4;stroke-opacity:1;stroke-dasharray:none;display:inline"
         inkscape:connector-curvature="0" />
      <path
         inkscape:connector-curvature="0"
         style="fill:none;stroke:#000000;stroke-width:0.16416886;stroke-miterlimit:4;stroke-opacity:1;stroke-dasharray:none;display:inline"
         id="path44335"
         d="m 394.47008,333.64917 a 44.209256,44.209256 0 0 1 -88.41851,0 44.209256,44.209256 0 1 1 88.41851,0 z" />
      <path
         d="m 130.61181,333.64917 a 44.209256,44.209256 0 0 1 -88.41851,0 44.209256,44.209256 0 1 1 88.41851,0 z"
         id="path44341"
         style="fill:none;stroke:#000000;stroke-width:0.16416886;stroke-miterlimit:4;stroke-opacity:1;stroke-dasharray:none;display:inline"
         inkscape:connector-curvature="0" />
      <path
         inkscape:connector-curvature="0"
         style="fill:none;stroke:#000000;stroke-width:0.16416886;stroke-miterlimit:4;stroke-opacity:1;stroke-dasharray:none;display:inline"
         id="path44347"
         d="m 658.32835,207.72003 a 44.209256,44.209256 0 0 1 -88.41851,0 44.209256,44.209256 0 1 1 88.41851,0 z" />
      <path
         d="m 262.54094,207.72003 a 44.209256,44.209256 0 0 1 -88.41851,0 44.209256,44.209256 0 1 1 88.41851,0 z"
         id="path44353"
         style="fill:none;stroke:#000000;stroke-width:0.16416886;stroke-miterlimit:4;stroke-opacity:1;stroke-dasharray:none;display:inline"
         inkscape:connector-curvature="0" />
      <path
         inkscape:connector-curvature="0"
         style="fill:none;stroke:#000000;stroke-width:0.16416886;stroke-miterlimit:4;stroke-opacity:1;stroke-dasharray:none;display:inline"
         id="path44359"
         d="m 130.61181,207.72003 a 44.209256,44.209256 0 0 1 -88.41851,0 44.209256,44.209256 0 1 1 88.41851,0 z" />
      <path
         d="m 394.47008,81.790895 a 44.209256,44.209256 0 0 1 -88.41851,0 44.209256,44.209256 0 1 1 88.41851,0 z"
         id="path44365"
         style="fill:none;stroke:#000000;stroke-width:0.16416886;stroke-miterlimit:4;stroke-opacity:1;stroke-dasharray:none;display:inline"
         inkscape:connector-curvature="0" />
      <path
         inkscape:connector-curvature="0"
         style="fill:none;stroke:#000000;stroke-width:0.16416886;stroke-miterlimit:4;stroke-opacity:1;stroke-dasharray:none;display:inline"
         id="path44371"
         d="m 262.54094,81.790895 a 44.209256,44.209256 0 0 1 -88.41851,0 44.209256,44.209256 0 1 1 88.41851,0 z" />
      <path
         inkscape:connector-curvature="0"
         style="fill:none;stroke:#000000;stroke-width:0.16416886;stroke-miterlimit:4;stroke-opacity:1;stroke-dasharray:none;display:inline"
         id="path44401"
         d="m 526.39921,963.29483 a 44.209256,44.209256 0 0 1 -88.41851,0 44.209256,44.209256 0 1 1 88.41851,0 z" />
      <path
         d="m 394.47008,963.29483 a 44.209256,44.209256 0 0 1 -88.41851,0 44.209256,44.209256 0 1 1 88.41851,0 z"
         id="path44407"
         style="fill:none;stroke:#000000;stroke-width:0.16416886;stroke-miterlimit:4;stroke-opacity:1;stroke-dasharray:none;display:inline"
         inkscape:connector-curvature="0" />
      <path
         inkscape:connector-curvature="0"
         style="fill:none;stroke:#000000;stroke-width:0.16416886;stroke-miterlimit:4;stroke-opacity:1;stroke-dasharray:none;display:inline"
         id="path44413"
         d="m 658.32835,837.3657 a 44.209256,44.209256 0 0 1 -88.41851,0 44.209256,44.209256 0 1 1 88.41851,0 z" />
      <path
         d="m 526.39921,837.3657 a 44.209256,44.209256 0 0 1 -88.41851,0 44.209256,44.209256 0 1 1 88.41851,0 z"
         id="path44419"
         style="fill:none;stroke:#000000;stroke-width:0.16416886;stroke-miterlimit:4;stroke-opacity:1;stroke-dasharray:none;display:inline"
         inkscape:connector-curvature="0" />
      <path
         inkscape:connector-curvature="0"
         style="fill:none;stroke:#000000;stroke-width:0.16416886;stroke-miterlimit:4;stroke-opacity:1;stroke-dasharray:none;display:inline"
         id="path44425"
         d="m 262.54094,837.3657 a 44.209256,44.209256 0 0 1 -88.41851,0 44.209256,44.209256 0 1 1 88.41851,0 z" />
      <path
         d="m 526.39921,711.43656 a 44.209256,44.209256 0 0 1 -88.41851,0 44.209256,44.209256 0 1 1 88.41851,0 z"
         id="path44431"
         style="fill:none;stroke:#000000;stroke-width:0.16416886;stroke-miterlimit:4;stroke-opacity:1;stroke-dasharray:none;display:inline"
         inkscape:connector-curvature="0" />
      <path
         inkscape:connector-curvature="0"
         style="fill:none;stroke:#000000;stroke-width:0.16416886;stroke-miterlimit:4;stroke-opacity:1;stroke-dasharray:none;display:inline"
         id="path44437"
         d="m 394.47008,711.43656 a 44.209256,44.209256 0 0 1 -88.41851,0 44.209256,44.209256 0 1 1 88.41851,0 z" />
      <path
         d="m 658.32835,585.50743 a 44.209256,44.209256 0 0 1 -88.41851,0 44.209256,44.209256 0 1 1 88.41851,0 z"
         id="path44443"
         style="fill:none;stroke:#000000;stroke-width:0.16416886;stroke-miterlimit:4;stroke-opacity:1;stroke-dasharray:none;display:inline"
         inkscape:connector-curvature="0" />
      <path
         inkscape:connector-curvature="0"
         style="fill:none;stroke:#000000;stroke-width:0.16416886;stroke-miterlimit:4;stroke-opacity:1;stroke-dasharray:none;display:inline"
         id="path44449"
         d="m 526.39921,585.50743 a 44.209256,44.209256 0 0 1 -88.41851,0 44.209256,44.209256 0 1 1 88.41851,0 z" />
      <path
         d="m 130.61181,585.50743 a 44.209256,44.209256 0 0 1 -88.41851,0 44.209256,44.209256 0 1 1 88.41851,0 z"
         id="path44455"
         style="fill:none;stroke:#000000;stroke-width:0.16416886;stroke-miterlimit:4;stroke-opacity:1;stroke-dasharray:none;display:inline"
         inkscape:connector-curvature="0" />
      <path
         inkscape:connector-curvature="0"
         style="fill:none;stroke:#000000;stroke-width:0.16416886;stroke-miterlimit:4;stroke-opacity:1;stroke-dasharray:none;display:inline"
         id="path44461"
         d="m 526.39921,459.5783 a 44.209256,44.209256 0 0 1 -88.41851,0 44.209256,44.209256 0 1 1 88.41851,0 z" />
      <path
         d="m 394.47008,459.5783 a 44.209256,44.209256 0 0 1 -88.41851,0 44.209256,44.209256 0 1 1 88.41851,0 z"
         id="path44467"
         style="fill:none;stroke:#000000;stroke-width:0.16416886;stroke-miterlimit:4;stroke-opacity:1;stroke-dasharray:none;display:inline"
         inkscape:connector-curvature="0" />
      <path
         inkscape:connector-curvature="0"
         style="fill:none;stroke:#000000;stroke-width:0.16416886;stroke-miterlimit:4;stroke-opacity:1;stroke-dasharray:none;display:inline"
         id="path44473"
         d="m 658.32835,333.64917 a 44.209256,44.209256 0 0 1 -88.41851,0 44.209256,44.209256 0 1 1 88.41851,0 z" />
      <path
         d="m 526.39921,333.64917 a 44.209256,44.209256 0 0 1 -88.41851,0 44.209256,44.209256 0 1 1 88.41851,0 z"
         id="path44479"
         style="fill:none;stroke:#000000;stroke-width:0.16416886;stroke-miterlimit:4;stroke-opacity:1;stroke-dasharray:none;display:inline"
         inkscape:connector-curvature="0" />
      <path
         inkscape:connector-curvature="0"
         style="fill:none;stroke:#000000;stroke-width:0.16416886;stroke-miterlimit:4;stroke-opacity:1;stroke-dasharray:none;display:inline"
         id="path44485"
         d="m 262.54094,333.64917 a 44.209256,44.209256 0 0 1 -88.41851,0 44.209256,44.209256 0 1 1 88.41851,0 z" />
      <path
         d="m 526.39921,207.72003 a 44.209256,44.209256 0 0 1 -88.41851,0 44.209256,44.209256 0 1 1 88.41851,0 z"
         id="path44491"
         style="fill:none;stroke:#000000;stroke-width:0.16416886;stroke-miterlimit:4;stroke-opacity:1;stroke-dasharray:none;display:inline"
         inkscape:connector-curvature="0" />
      <path
         inkscape:connector-curvature="0"
         style="fill:none;stroke:#000000;stroke-width:0.16416886;stroke-miterlimit:4;stroke-opacity:1;stroke-dasharray:none;display:inline"
         id="path44497"
         d="m 394.47008,207.72003 a 44.209256,44.209256 0 0 1 -88.41851,0 44.209256,44.209256 0 1 1 88.41851,0 z" />
      <path
         d="m 658.32835,81.790895 a 44.209256,44.209256 0 0 1 -88.41851,0 44.209256,44.209256 0 1 1 88.41851,0 z"
         id="path44503"
         style="fill:none;stroke:#000000;stroke-width:0.16416886;stroke-miterlimit:4;stroke-opacity:1;stroke-dasharray:none;display:inline"
         inkscape:connector-curvature="0" />
      <path
         inkscape:connector-curvature="0"
         style="fill:none;stroke:#000000;stroke-width:0.16416886;stroke-miterlimit:4;stroke-opacity:1;stroke-dasharray:none;display:inline"
         id="path44509"
         d="m 526.39921,81.790895 a 44.209256,44.209256 0 0 1 -88.41851,0 44.209256,44.209256 0 1 1 88.41851,0 z" />
      <path
         d="m 130.61181,81.790895 a 44.209256,44.209256 0 0 1 -88.41851,0 44.209256,44.209256 0 1 1 88.41851,0 z"
         id="path44515"
         style="fill:none;stroke:#000000;stroke-width:0.16416886;stroke-miterlimit:4;stroke-opacity:1;stroke-dasharray:none;display:inline"
         inkscape:connector-curvature="0" />
    </g>
  </g>
</svg>
