<?xml version="1.0" encoding="UTF-8" standalone="no"?>
<!-- Created with Inkscape (http://www.inkscape.org/) -->

<svg
   xmlns:dc="http://purl.org/dc/elements/1.1/"
   xmlns:cc="http://creativecommons.org/ns#"
   xmlns:rdf="http://www.w3.org/1999/02/22-rdf-syntax-ns#"
   xmlns:svg="http://www.w3.org/2000/svg"
   xmlns="http://www.w3.org/2000/svg"
   xmlns:sodipodi="http://sodipodi.sourceforge.net/DTD/sodipodi-0.dtd"
   xmlns:inkscape="http://www.inkscape.org/namespaces/inkscape"
   width="210mm"
   height="297mm"
   id="svg3727"
   version="1.1"
   inkscape:version="0.48.2 r9819"
   sodipodi:docname="BUTTONVORLAGE.svg"
   inkscape:export-filename="C:\Users\Fred\Documents\BUTTONVORLAGE.png"
   inkscape:export-xdpi="299.96191"
   inkscape:export-ydpi="299.96191">
  <defs
     id="defs3729" />
  <sodipodi:namedview
     id="base"
     pagecolor="#ffffff"
     bordercolor="#666666"
     borderopacity="1.0"
     inkscape:pageopacity="0.0"
     inkscape:pageshadow="2"
     inkscape:zoom="0.7"
     inkscape:cx="206.38914"
     inkscape:cy="553.35284"
     inkscape:document-units="px"
     inkscape:current-layer="layer1"
     showgrid="false"
     inkscape:window-width="1920"
     inkscape:window-height="1025"
     inkscape:window-x="-4"
     inkscape:window-y="-4"
     inkscape:window-maximized="1" />
  <metadata
     id="metadata3732">
    <rdf:RDF>
      <cc:Work
         rdf:about="">
        <dc:format>image/svg+xml</dc:format>
        <dc:type
           rdf:resource="http://purl.org/dc/dcmitype/StillImage" />
        <dc:title></dc:title>
      </cc:Work>
    </rdf:RDF>
  </metadata>
  <g
     inkscape:groupmode="layer"
     id="layer2"
     inkscape:label="Ebene"
     sodipodi:insensitive="true">
    <rect
       style="fill:#ffffff;fill-opacity:1;stroke:#000000;stroke-width:0.5;stroke-miterlimit:4;stroke-opacity:1;stroke-dasharray:none;display:inline"
       id="rect4401"
       width="690.94489"
       height="999.21259"
       x="26.574799"
       y="26.574799" />
  </g>
  <g
     inkscape:label="Ebene 1"
     inkscape:groupmode="layer"
     id="layer1">
    <g
       style="display:inline"
       inkscape:tile-y0="39.437551"
       inkscape:tile-x0="-270.06755"
       transform="translate(-1402.681,78.138256)"
       id="use5540"
       inkscape:tile-cx="-188.57149"
       inkscape:tile-cy="120.93361"
       inkscape:tile-w="162.99213"
       inkscape:tile-h="162.99213">
      <path
         sodipodi:type="arc"
         style="fill:none;stroke:#000000;stroke-width:0.63215053;stroke-miterlimit:4;stroke-opacity:1;stroke-dasharray:none"
         id="path6034"
         sodipodi:cx="-664.68036"
         sodipodi:cy="296.76807"
         sodipodi:rx="103.03556"
         sodipodi:ry="103.03556"
         d="m -561.6448,296.76807 c 0,56.90497 -46.13059,103.03556 -103.03556,103.03556 -56.90497,0 -103.03556,-46.13059 -103.03556,-103.03556 0,-56.90497 46.13059,-103.03556 103.03556,-103.03556 56.90497,0 103.03556,46.13059 103.03556,103.03556 z"
         transform="matrix(0.79095084,0,0,0.79095084,1417.2676,-183.07645)" />
      <path
         sodipodi:type="arc"
         style="fill:none;stroke:#000000;stroke-width:0.38261744;stroke-miterlimit:4;stroke-opacity:1;stroke-dasharray:none;display:inline"
         id="path6036"
         sodipodi:cx="-664.68036"
         sodipodi:cy="296.76807"
         sodipodi:rx="103.03556"
         sodipodi:ry="103.03556"
         d="m -561.6448,296.76807 c 0,56.90497 -46.13059,103.03556 -103.03556,103.03556 -56.90497,0 -103.03556,-46.13059 -103.03556,-103.03556 0,-56.90497 46.13059,-103.03556 103.03556,-103.03556 56.90497,0 103.03556,46.13059 103.03556,103.03556 z"
         transform="matrix(0.65339417,0,0,0.65339417,1325.8364,-142.25402)" />
    </g>
    <g
       id="use4495"
       transform="translate(-781.97908,57.048233)"
       inkscape:tile-x0="-270.06755"
       inkscape:tile-y0="39.437551"
       style="display:inline">
      <path
         transform="matrix(0.79095084,0,0,0.79095084,1417.2676,-183.07645)"
         d="m -561.6448,296.76807 c 0,56.90497 -46.13059,103.03556 -103.03556,103.03556 -56.90497,0 -103.03556,-46.13059 -103.03556,-103.03556 0,-56.90497 46.13059,-103.03556 103.03556,-103.03556 56.90497,0 103.03556,46.13059 103.03556,103.03556 z"
         sodipodi:ry="103.03556"
         sodipodi:rx="103.03556"
         sodipodi:cy="296.76807"
         sodipodi:cx="-664.68036"
         id="path4683"
         style="fill:none;stroke:#000000;stroke-width:0.63215053;stroke-miterlimit:4;stroke-opacity:1;stroke-dasharray:none"
         sodipodi:type="arc" />
      <path
         transform="matrix(0.65339417,0,0,0.65339417,1325.8364,-142.25402)"
         d="m -561.6448,296.76807 c 0,56.90497 -46.13059,103.03556 -103.03556,103.03556 -56.90497,0 -103.03556,-46.13059 -103.03556,-103.03556 0,-56.90497 46.13059,-103.03556 103.03556,-103.03556 56.90497,0 103.03556,46.13059 103.03556,103.03556 z"
         sodipodi:ry="103.03556"
         sodipodi:rx="103.03556"
         sodipodi:cy="296.76807"
         sodipodi:cx="-664.68036"
         id="path4685"
         style="fill:none;stroke:#000000;stroke-width:0.38261744;stroke-miterlimit:4;stroke-opacity:1;stroke-dasharray:none;display:inline"
         sodipodi:type="arc" />
    </g>
    <g
       id="use4497"
       transform="translate(-781.97908,224.04033)"
       inkscape:tile-x0="-270.06755"
       inkscape:tile-y0="39.437551"
       style="display:inline">
      <path
         transform="matrix(0.79095084,0,0,0.79095084,1417.2676,-183.07645)"
         d="m -561.6448,296.76807 c 0,56.90497 -46.13059,103.03556 -103.03556,103.03556 -56.90497,0 -103.03556,-46.13059 -103.03556,-103.03556 0,-56.90497 46.13059,-103.03556 103.03556,-103.03556 56.90497,0 103.03556,46.13059 103.03556,103.03556 z"
         sodipodi:ry="103.03556"
         sodipodi:rx="103.03556"
         sodipodi:cy="296.76807"
         sodipodi:cx="-664.68036"
         id="path4677"
         style="fill:none;stroke:#000000;stroke-width:0.63215053;stroke-miterlimit:4;stroke-opacity:1;stroke-dasharray:none"
         sodipodi:type="arc" />
      <path
         transform="matrix(0.65339417,0,0,0.65339417,1325.8364,-142.25402)"
         d="m -561.6448,296.76807 c 0,56.90497 -46.13059,103.03556 -103.03556,103.03556 -56.90497,0 -103.03556,-46.13059 -103.03556,-103.03556 0,-56.90497 46.13059,-103.03556 103.03556,-103.03556 56.90497,0 103.03556,46.13059 103.03556,103.03556 z"
         sodipodi:ry="103.03556"
         sodipodi:rx="103.03556"
         sodipodi:cy="296.76807"
         sodipodi:cx="-664.68036"
         id="path4679"
         style="fill:none;stroke:#000000;stroke-width:0.38261744;stroke-miterlimit:4;stroke-opacity:1;stroke-dasharray:none;display:inline"
         sodipodi:type="arc" />
    </g>
    <g
       id="use4499"
       transform="translate(-781.97908,391.03246)"
       inkscape:tile-x0="-270.06755"
       inkscape:tile-y0="39.437551"
       style="display:inline">
      <path
         transform="matrix(0.79095084,0,0,0.79095084,1417.2676,-183.07645)"
         d="m -561.6448,296.76807 c 0,56.90497 -46.13059,103.03556 -103.03556,103.03556 -56.90497,0 -103.03556,-46.13059 -103.03556,-103.03556 0,-56.90497 46.13059,-103.03556 103.03556,-103.03556 56.90497,0 103.03556,46.13059 103.03556,103.03556 z"
         sodipodi:ry="103.03556"
         sodipodi:rx="103.03556"
         sodipodi:cy="296.76807"
         sodipodi:cx="-664.68036"
         id="path4671"
         style="fill:none;stroke:#000000;stroke-width:0.63215053;stroke-miterlimit:4;stroke-opacity:1;stroke-dasharray:none"
         sodipodi:type="arc" />
      <path
         transform="matrix(0.65339417,0,0,0.65339417,1325.8364,-142.25402)"
         d="m -561.6448,296.76807 c 0,56.90497 -46.13059,103.03556 -103.03556,103.03556 -56.90497,0 -103.03556,-46.13059 -103.03556,-103.03556 0,-56.90497 46.13059,-103.03556 103.03556,-103.03556 56.90497,0 103.03556,46.13059 103.03556,103.03556 z"
         sodipodi:ry="103.03556"
         sodipodi:rx="103.03556"
         sodipodi:cy="296.76807"
         sodipodi:cx="-664.68036"
         id="path4673"
         style="fill:none;stroke:#000000;stroke-width:0.38261744;stroke-miterlimit:4;stroke-opacity:1;stroke-dasharray:none;display:inline"
         sodipodi:type="arc" />
    </g>
    <g
       id="use4501"
       transform="translate(-781.97908,558.02464)"
       inkscape:tile-x0="-270.06755"
       inkscape:tile-y0="39.437551"
       style="display:inline">
      <path
         transform="matrix(0.79095084,0,0,0.79095084,1417.2676,-183.07645)"
         d="m -561.6448,296.76807 c 0,56.90497 -46.13059,103.03556 -103.03556,103.03556 -56.90497,0 -103.03556,-46.13059 -103.03556,-103.03556 0,-56.90497 46.13059,-103.03556 103.03556,-103.03556 56.90497,0 103.03556,46.13059 103.03556,103.03556 z"
         sodipodi:ry="103.03556"
         sodipodi:rx="103.03556"
         sodipodi:cy="296.76807"
         sodipodi:cx="-664.68036"
         id="path4665"
         style="fill:none;stroke:#000000;stroke-width:0.63215053;stroke-miterlimit:4;stroke-opacity:1;stroke-dasharray:none"
         sodipodi:type="arc" />
      <path
         transform="matrix(0.65339417,0,0,0.65339417,1325.8364,-142.25402)"
         d="m -561.6448,296.76807 c 0,56.90497 -46.13059,103.03556 -103.03556,103.03556 -56.90497,0 -103.03556,-46.13059 -103.03556,-103.03556 0,-56.90497 46.13059,-103.03556 103.03556,-103.03556 56.90497,0 103.03556,46.13059 103.03556,103.03556 z"
         sodipodi:ry="103.03556"
         sodipodi:rx="103.03556"
         sodipodi:cy="296.76807"
         sodipodi:cx="-664.68036"
         id="path4667"
         style="fill:none;stroke:#000000;stroke-width:0.38261744;stroke-miterlimit:4;stroke-opacity:1;stroke-dasharray:none;display:inline"
         sodipodi:type="arc" />
    </g>
    <g
       id="use4503"
       transform="translate(-781.97908,725.01678)"
       inkscape:tile-x0="-270.06755"
       inkscape:tile-y0="39.437551"
       style="display:inline">
      <path
         transform="matrix(0.79095084,0,0,0.79095084,1417.2676,-183.07645)"
         d="m -561.6448,296.76807 c 0,56.90497 -46.13059,103.03556 -103.03556,103.03556 -56.90497,0 -103.03556,-46.13059 -103.03556,-103.03556 0,-56.90497 46.13059,-103.03556 103.03556,-103.03556 56.90497,0 103.03556,46.13059 103.03556,103.03556 z"
         sodipodi:ry="103.03556"
         sodipodi:rx="103.03556"
         sodipodi:cy="296.76807"
         sodipodi:cx="-664.68036"
         id="path4659"
         style="fill:none;stroke:#000000;stroke-width:0.63215053;stroke-miterlimit:4;stroke-opacity:1;stroke-dasharray:none"
         sodipodi:type="arc" />
      <path
         transform="matrix(0.65339417,0,0,0.65339417,1325.8364,-142.25402)"
         d="m -561.6448,296.76807 c 0,56.90497 -46.13059,103.03556 -103.03556,103.03556 -56.90497,0 -103.03556,-46.13059 -103.03556,-103.03556 0,-56.90497 46.13059,-103.03556 103.03556,-103.03556 56.90497,0 103.03556,46.13059 103.03556,103.03556 z"
         sodipodi:ry="103.03556"
         sodipodi:rx="103.03556"
         sodipodi:cy="296.76807"
         sodipodi:cx="-664.68036"
         id="path4661"
         style="fill:none;stroke:#000000;stroke-width:0.38261744;stroke-miterlimit:4;stroke-opacity:1;stroke-dasharray:none;display:inline"
         sodipodi:type="arc" />
    </g>
    <g
       id="use4505"
       transform="translate(-781.97908,892.00891)"
       inkscape:tile-x0="-270.06755"
       inkscape:tile-y0="39.437551"
       style="display:inline">
      <path
         transform="matrix(0.79095084,0,0,0.79095084,1417.2676,-183.07645)"
         d="m -561.6448,296.76807 c 0,56.90497 -46.13059,103.03556 -103.03556,103.03556 -56.90497,0 -103.03556,-46.13059 -103.03556,-103.03556 0,-56.90497 46.13059,-103.03556 103.03556,-103.03556 56.90497,0 103.03556,46.13059 103.03556,103.03556 z"
         sodipodi:ry="103.03556"
         sodipodi:rx="103.03556"
         sodipodi:cy="296.76807"
         sodipodi:cx="-664.68036"
         id="path4653"
         style="fill:none;stroke:#000000;stroke-width:0.63215053;stroke-miterlimit:4;stroke-opacity:1;stroke-dasharray:none"
         sodipodi:type="arc" />
      <path
         transform="matrix(0.65339417,0,0,0.65339417,1325.8364,-142.25402)"
         d="m -561.6448,296.76807 c 0,56.90497 -46.13059,103.03556 -103.03556,103.03556 -56.90497,0 -103.03556,-46.13059 -103.03556,-103.03556 0,-56.90497 46.13059,-103.03556 103.03556,-103.03556 56.90497,0 103.03556,46.13059 103.03556,103.03556 z"
         sodipodi:ry="103.03556"
         sodipodi:rx="103.03556"
         sodipodi:cy="296.76807"
         sodipodi:cx="-664.68036"
         id="path4655"
         style="fill:none;stroke:#000000;stroke-width:0.38261744;stroke-miterlimit:4;stroke-opacity:1;stroke-dasharray:none;display:inline"
         sodipodi:type="arc" />
    </g>
    <g
       id="use4507"
       transform="translate(-606.98693,57.048195)"
       inkscape:tile-x0="-270.06755"
       inkscape:tile-y0="39.437551"
       style="display:inline">
      <path
         transform="matrix(0.79095084,0,0,0.79095084,1417.2676,-183.07645)"
         d="m -561.6448,296.76807 c 0,56.90497 -46.13059,103.03556 -103.03556,103.03556 -56.90497,0 -103.03556,-46.13059 -103.03556,-103.03556 0,-56.90497 46.13059,-103.03556 103.03556,-103.03556 56.90497,0 103.03556,46.13059 103.03556,103.03556 z"
         sodipodi:ry="103.03556"
         sodipodi:rx="103.03556"
         sodipodi:cy="296.76807"
         sodipodi:cx="-664.68036"
         id="path4647"
         style="fill:none;stroke:#000000;stroke-width:0.63215053;stroke-miterlimit:4;stroke-opacity:1;stroke-dasharray:none"
         sodipodi:type="arc" />
      <path
         transform="matrix(0.65339417,0,0,0.65339417,1325.8364,-142.25402)"
         d="m -561.6448,296.76807 c 0,56.90497 -46.13059,103.03556 -103.03556,103.03556 -56.90497,0 -103.03556,-46.13059 -103.03556,-103.03556 0,-56.90497 46.13059,-103.03556 103.03556,-103.03556 56.90497,0 103.03556,46.13059 103.03556,103.03556 z"
         sodipodi:ry="103.03556"
         sodipodi:rx="103.03556"
         sodipodi:cy="296.76807"
         sodipodi:cx="-664.68036"
         id="path4649"
         style="fill:none;stroke:#000000;stroke-width:0.38261744;stroke-miterlimit:4;stroke-opacity:1;stroke-dasharray:none;display:inline"
         sodipodi:type="arc" />
    </g>
    <g
       id="use4509"
       transform="translate(-606.98693,224.04037)"
       inkscape:tile-x0="-270.06755"
       inkscape:tile-y0="39.437551"
       style="display:inline">
      <path
         transform="matrix(0.79095084,0,0,0.79095084,1417.2676,-183.07645)"
         d="m -561.6448,296.76807 c 0,56.90497 -46.13059,103.03556 -103.03556,103.03556 -56.90497,0 -103.03556,-46.13059 -103.03556,-103.03556 0,-56.90497 46.13059,-103.03556 103.03556,-103.03556 56.90497,0 103.03556,46.13059 103.03556,103.03556 z"
         sodipodi:ry="103.03556"
         sodipodi:rx="103.03556"
         sodipodi:cy="296.76807"
         sodipodi:cx="-664.68036"
         id="path4641"
         style="fill:none;stroke:#000000;stroke-width:0.63215053;stroke-miterlimit:4;stroke-opacity:1;stroke-dasharray:none"
         sodipodi:type="arc" />
      <path
         transform="matrix(0.65339417,0,0,0.65339417,1325.8364,-142.25402)"
         d="m -561.6448,296.76807 c 0,56.90497 -46.13059,103.03556 -103.03556,103.03556 -56.90497,0 -103.03556,-46.13059 -103.03556,-103.03556 0,-56.90497 46.13059,-103.03556 103.03556,-103.03556 56.90497,0 103.03556,46.13059 103.03556,103.03556 z"
         sodipodi:ry="103.03556"
         sodipodi:rx="103.03556"
         sodipodi:cy="296.76807"
         sodipodi:cx="-664.68036"
         id="path4643"
         style="fill:none;stroke:#000000;stroke-width:0.38261744;stroke-miterlimit:4;stroke-opacity:1;stroke-dasharray:none;display:inline"
         sodipodi:type="arc" />
    </g>
    <g
       id="use4511"
       transform="translate(-606.98693,391.03251)"
       inkscape:tile-x0="-270.06755"
       inkscape:tile-y0="39.437551"
       style="display:inline">
      <path
         transform="matrix(0.79095084,0,0,0.79095084,1417.2676,-183.07645)"
         d="m -561.6448,296.76807 c 0,56.90497 -46.13059,103.03556 -103.03556,103.03556 -56.90497,0 -103.03556,-46.13059 -103.03556,-103.03556 0,-56.90497 46.13059,-103.03556 103.03556,-103.03556 56.90497,0 103.03556,46.13059 103.03556,103.03556 z"
         sodipodi:ry="103.03556"
         sodipodi:rx="103.03556"
         sodipodi:cy="296.76807"
         sodipodi:cx="-664.68036"
         id="path4635"
         style="fill:none;stroke:#000000;stroke-width:0.63215053;stroke-miterlimit:4;stroke-opacity:1;stroke-dasharray:none"
         sodipodi:type="arc" />
      <path
         transform="matrix(0.65339417,0,0,0.65339417,1325.8364,-142.25402)"
         d="m -561.6448,296.76807 c 0,56.90497 -46.13059,103.03556 -103.03556,103.03556 -56.90497,0 -103.03556,-46.13059 -103.03556,-103.03556 0,-56.90497 46.13059,-103.03556 103.03556,-103.03556 56.90497,0 103.03556,46.13059 103.03556,103.03556 z"
         sodipodi:ry="103.03556"
         sodipodi:rx="103.03556"
         sodipodi:cy="296.76807"
         sodipodi:cx="-664.68036"
         id="path4637"
         style="fill:none;stroke:#000000;stroke-width:0.38261744;stroke-miterlimit:4;stroke-opacity:1;stroke-dasharray:none;display:inline"
         sodipodi:type="arc" />
    </g>
    <g
       id="use4513"
       transform="translate(-606.98693,558.02462)"
       inkscape:tile-x0="-270.06755"
       inkscape:tile-y0="39.437551"
       style="display:inline">
      <path
         transform="matrix(0.79095084,0,0,0.79095084,1417.2676,-183.07645)"
         d="m -561.6448,296.76807 c 0,56.90497 -46.13059,103.03556 -103.03556,103.03556 -56.90497,0 -103.03556,-46.13059 -103.03556,-103.03556 0,-56.90497 46.13059,-103.03556 103.03556,-103.03556 56.90497,0 103.03556,46.13059 103.03556,103.03556 z"
         sodipodi:ry="103.03556"
         sodipodi:rx="103.03556"
         sodipodi:cy="296.76807"
         sodipodi:cx="-664.68036"
         id="path4629"
         style="fill:none;stroke:#000000;stroke-width:0.63215053;stroke-miterlimit:4;stroke-opacity:1;stroke-dasharray:none"
         sodipodi:type="arc" />
      <path
         transform="matrix(0.65339417,0,0,0.65339417,1325.8364,-142.25402)"
         d="m -561.6448,296.76807 c 0,56.90497 -46.13059,103.03556 -103.03556,103.03556 -56.90497,0 -103.03556,-46.13059 -103.03556,-103.03556 0,-56.90497 46.13059,-103.03556 103.03556,-103.03556 56.90497,0 103.03556,46.13059 103.03556,103.03556 z"
         sodipodi:ry="103.03556"
         sodipodi:rx="103.03556"
         sodipodi:cy="296.76807"
         sodipodi:cx="-664.68036"
         id="path4631"
         style="fill:none;stroke:#000000;stroke-width:0.38261744;stroke-miterlimit:4;stroke-opacity:1;stroke-dasharray:none;display:inline"
         sodipodi:type="arc" />
    </g>
    <g
       id="use4515"
       transform="translate(-606.98693,725.01677)"
       inkscape:tile-x0="-270.06755"
       inkscape:tile-y0="39.437551"
       style="display:inline">
      <path
         transform="matrix(0.79095084,0,0,0.79095084,1417.2676,-183.07645)"
         d="m -561.6448,296.76807 c 0,56.90497 -46.13059,103.03556 -103.03556,103.03556 -56.90497,0 -103.03556,-46.13059 -103.03556,-103.03556 0,-56.90497 46.13059,-103.03556 103.03556,-103.03556 56.90497,0 103.03556,46.13059 103.03556,103.03556 z"
         sodipodi:ry="103.03556"
         sodipodi:rx="103.03556"
         sodipodi:cy="296.76807"
         sodipodi:cx="-664.68036"
         id="path4623"
         style="fill:none;stroke:#000000;stroke-width:0.63215053;stroke-miterlimit:4;stroke-opacity:1;stroke-dasharray:none"
         sodipodi:type="arc" />
      <path
         transform="matrix(0.65339417,0,0,0.65339417,1325.8364,-142.25402)"
         d="m -561.6448,296.76807 c 0,56.90497 -46.13059,103.03556 -103.03556,103.03556 -56.90497,0 -103.03556,-46.13059 -103.03556,-103.03556 0,-56.90497 46.13059,-103.03556 103.03556,-103.03556 56.90497,0 103.03556,46.13059 103.03556,103.03556 z"
         sodipodi:ry="103.03556"
         sodipodi:rx="103.03556"
         sodipodi:cy="296.76807"
         sodipodi:cx="-664.68036"
         id="path4625"
         style="fill:none;stroke:#000000;stroke-width:0.38261744;stroke-miterlimit:4;stroke-opacity:1;stroke-dasharray:none;display:inline"
         sodipodi:type="arc" />
    </g>
    <g
       id="use4517"
       transform="translate(-606.98693,892.00891)"
       inkscape:tile-x0="-270.06755"
       inkscape:tile-y0="39.437551"
       style="display:inline">
      <path
         transform="matrix(0.79095084,0,0,0.79095084,1417.2676,-183.07645)"
         d="m -561.6448,296.76807 c 0,56.90497 -46.13059,103.03556 -103.03556,103.03556 -56.90497,0 -103.03556,-46.13059 -103.03556,-103.03556 0,-56.90497 46.13059,-103.03556 103.03556,-103.03556 56.90497,0 103.03556,46.13059 103.03556,103.03556 z"
         sodipodi:ry="103.03556"
         sodipodi:rx="103.03556"
         sodipodi:cy="296.76807"
         sodipodi:cx="-664.68036"
         id="path4617"
         style="fill:none;stroke:#000000;stroke-width:0.63215053;stroke-miterlimit:4;stroke-opacity:1;stroke-dasharray:none"
         sodipodi:type="arc" />
      <path
         transform="matrix(0.65339417,0,0,0.65339417,1325.8364,-142.25402)"
         d="m -561.6448,296.76807 c 0,56.90497 -46.13059,103.03556 -103.03556,103.03556 -56.90497,0 -103.03556,-46.13059 -103.03556,-103.03556 0,-56.90497 46.13059,-103.03556 103.03556,-103.03556 56.90497,0 103.03556,46.13059 103.03556,103.03556 z"
         sodipodi:ry="103.03556"
         sodipodi:rx="103.03556"
         sodipodi:cy="296.76807"
         sodipodi:cx="-664.68036"
         id="path4619"
         style="fill:none;stroke:#000000;stroke-width:0.38261744;stroke-miterlimit:4;stroke-opacity:1;stroke-dasharray:none;display:inline"
         sodipodi:type="arc" />
    </g>
    <g
       id="use4519"
       transform="translate(-431.99479,57.048195)"
       inkscape:tile-x0="-270.06755"
       inkscape:tile-y0="39.437551"
       style="display:inline">
      <path
         transform="matrix(0.79095084,0,0,0.79095084,1417.2676,-183.07645)"
         d="m -561.6448,296.76807 c 0,56.90497 -46.13059,103.03556 -103.03556,103.03556 -56.90497,0 -103.03556,-46.13059 -103.03556,-103.03556 0,-56.90497 46.13059,-103.03556 103.03556,-103.03556 56.90497,0 103.03556,46.13059 103.03556,103.03556 z"
         sodipodi:ry="103.03556"
         sodipodi:rx="103.03556"
         sodipodi:cy="296.76807"
         sodipodi:cx="-664.68036"
         id="path4611"
         style="fill:none;stroke:#000000;stroke-width:0.63215053;stroke-miterlimit:4;stroke-opacity:1;stroke-dasharray:none"
         sodipodi:type="arc" />
      <path
         transform="matrix(0.65339417,0,0,0.65339417,1325.8364,-142.25402)"
         d="m -561.6448,296.76807 c 0,56.90497 -46.13059,103.03556 -103.03556,103.03556 -56.90497,0 -103.03556,-46.13059 -103.03556,-103.03556 0,-56.90497 46.13059,-103.03556 103.03556,-103.03556 56.90497,0 103.03556,46.13059 103.03556,103.03556 z"
         sodipodi:ry="103.03556"
         sodipodi:rx="103.03556"
         sodipodi:cy="296.76807"
         sodipodi:cx="-664.68036"
         id="path4613"
         style="fill:none;stroke:#000000;stroke-width:0.38261744;stroke-miterlimit:4;stroke-opacity:1;stroke-dasharray:none;display:inline"
         sodipodi:type="arc" />
    </g>
    <g
       id="use4521"
       transform="translate(-431.99479,224.04037)"
       inkscape:tile-x0="-270.06755"
       inkscape:tile-y0="39.437551"
       style="display:inline">
      <path
         transform="matrix(0.79095084,0,0,0.79095084,1417.2676,-183.07645)"
         d="m -561.6448,296.76807 c 0,56.90497 -46.13059,103.03556 -103.03556,103.03556 -56.90497,0 -103.03556,-46.13059 -103.03556,-103.03556 0,-56.90497 46.13059,-103.03556 103.03556,-103.03556 56.90497,0 103.03556,46.13059 103.03556,103.03556 z"
         sodipodi:ry="103.03556"
         sodipodi:rx="103.03556"
         sodipodi:cy="296.76807"
         sodipodi:cx="-664.68036"
         id="path4605"
         style="fill:none;stroke:#000000;stroke-width:0.63215053;stroke-miterlimit:4;stroke-opacity:1;stroke-dasharray:none"
         sodipodi:type="arc" />
      <path
         transform="matrix(0.65339417,0,0,0.65339417,1325.8364,-142.25402)"
         d="m -561.6448,296.76807 c 0,56.90497 -46.13059,103.03556 -103.03556,103.03556 -56.90497,0 -103.03556,-46.13059 -103.03556,-103.03556 0,-56.90497 46.13059,-103.03556 103.03556,-103.03556 56.90497,0 103.03556,46.13059 103.03556,103.03556 z"
         sodipodi:ry="103.03556"
         sodipodi:rx="103.03556"
         sodipodi:cy="296.76807"
         sodipodi:cx="-664.68036"
         id="path4607"
         style="fill:none;stroke:#000000;stroke-width:0.38261744;stroke-miterlimit:4;stroke-opacity:1;stroke-dasharray:none;display:inline"
         sodipodi:type="arc" />
    </g>
    <g
       id="use4523"
       transform="translate(-431.99479,391.03251)"
       inkscape:tile-x0="-270.06755"
       inkscape:tile-y0="39.437551"
       style="display:inline">
      <path
         transform="matrix(0.79095084,0,0,0.79095084,1417.2676,-183.07645)"
         d="m -561.6448,296.76807 c 0,56.90497 -46.13059,103.03556 -103.03556,103.03556 -56.90497,0 -103.03556,-46.13059 -103.03556,-103.03556 0,-56.90497 46.13059,-103.03556 103.03556,-103.03556 56.90497,0 103.03556,46.13059 103.03556,103.03556 z"
         sodipodi:ry="103.03556"
         sodipodi:rx="103.03556"
         sodipodi:cy="296.76807"
         sodipodi:cx="-664.68036"
         id="path4599"
         style="fill:none;stroke:#000000;stroke-width:0.63215053;stroke-miterlimit:4;stroke-opacity:1;stroke-dasharray:none"
         sodipodi:type="arc" />
      <path
         transform="matrix(0.65339417,0,0,0.65339417,1325.8364,-142.25402)"
         d="m -561.6448,296.76807 c 0,56.90497 -46.13059,103.03556 -103.03556,103.03556 -56.90497,0 -103.03556,-46.13059 -103.03556,-103.03556 0,-56.90497 46.13059,-103.03556 103.03556,-103.03556 56.90497,0 103.03556,46.13059 103.03556,103.03556 z"
         sodipodi:ry="103.03556"
         sodipodi:rx="103.03556"
         sodipodi:cy="296.76807"
         sodipodi:cx="-664.68036"
         id="path4601"
         style="fill:none;stroke:#000000;stroke-width:0.38261744;stroke-miterlimit:4;stroke-opacity:1;stroke-dasharray:none;display:inline"
         sodipodi:type="arc" />
    </g>
    <g
       id="use4525"
       transform="translate(-431.99479,558.02462)"
       inkscape:tile-x0="-270.06755"
       inkscape:tile-y0="39.437551"
       style="display:inline">
      <path
         transform="matrix(0.79095084,0,0,0.79095084,1417.2676,-183.07645)"
         d="m -561.6448,296.76807 c 0,56.90497 -46.13059,103.03556 -103.03556,103.03556 -56.90497,0 -103.03556,-46.13059 -103.03556,-103.03556 0,-56.90497 46.13059,-103.03556 103.03556,-103.03556 56.90497,0 103.03556,46.13059 103.03556,103.03556 z"
         sodipodi:ry="103.03556"
         sodipodi:rx="103.03556"
         sodipodi:cy="296.76807"
         sodipodi:cx="-664.68036"
         id="path4593"
         style="fill:none;stroke:#000000;stroke-width:0.63215053;stroke-miterlimit:4;stroke-opacity:1;stroke-dasharray:none"
         sodipodi:type="arc" />
      <path
         transform="matrix(0.65339417,0,0,0.65339417,1325.8364,-142.25402)"
         d="m -561.6448,296.76807 c 0,56.90497 -46.13059,103.03556 -103.03556,103.03556 -56.90497,0 -103.03556,-46.13059 -103.03556,-103.03556 0,-56.90497 46.13059,-103.03556 103.03556,-103.03556 56.90497,0 103.03556,46.13059 103.03556,103.03556 z"
         sodipodi:ry="103.03556"
         sodipodi:rx="103.03556"
         sodipodi:cy="296.76807"
         sodipodi:cx="-664.68036"
         id="path4595"
         style="fill:none;stroke:#000000;stroke-width:0.38261744;stroke-miterlimit:4;stroke-opacity:1;stroke-dasharray:none;display:inline"
         sodipodi:type="arc" />
    </g>
    <g
       id="use4527"
       transform="translate(-431.99479,725.01677)"
       inkscape:tile-x0="-270.06755"
       inkscape:tile-y0="39.437551"
       style="display:inline">
      <path
         transform="matrix(0.79095084,0,0,0.79095084,1417.2676,-183.07645)"
         d="m -561.6448,296.76807 c 0,56.90497 -46.13059,103.03556 -103.03556,103.03556 -56.90497,0 -103.03556,-46.13059 -103.03556,-103.03556 0,-56.90497 46.13059,-103.03556 103.03556,-103.03556 56.90497,0 103.03556,46.13059 103.03556,103.03556 z"
         sodipodi:ry="103.03556"
         sodipodi:rx="103.03556"
         sodipodi:cy="296.76807"
         sodipodi:cx="-664.68036"
         id="path4587"
         style="fill:none;stroke:#000000;stroke-width:0.63215053;stroke-miterlimit:4;stroke-opacity:1;stroke-dasharray:none"
         sodipodi:type="arc" />
      <path
         transform="matrix(0.65339417,0,0,0.65339417,1325.8364,-142.25402)"
         d="m -561.6448,296.76807 c 0,56.90497 -46.13059,103.03556 -103.03556,103.03556 -56.90497,0 -103.03556,-46.13059 -103.03556,-103.03556 0,-56.90497 46.13059,-103.03556 103.03556,-103.03556 56.90497,0 103.03556,46.13059 103.03556,103.03556 z"
         sodipodi:ry="103.03556"
         sodipodi:rx="103.03556"
         sodipodi:cy="296.76807"
         sodipodi:cx="-664.68036"
         id="path4589"
         style="fill:none;stroke:#000000;stroke-width:0.38261744;stroke-miterlimit:4;stroke-opacity:1;stroke-dasharray:none;display:inline"
         sodipodi:type="arc" />
    </g>
    <g
       id="use4529"
       transform="translate(-431.99479,892.00891)"
       inkscape:tile-x0="-270.06755"
       inkscape:tile-y0="39.437551"
       style="display:inline">
      <path
         transform="matrix(0.79095084,0,0,0.79095084,1417.2676,-183.07645)"
         d="m -561.6448,296.76807 c 0,56.90497 -46.13059,103.03556 -103.03556,103.03556 -56.90497,0 -103.03556,-46.13059 -103.03556,-103.03556 0,-56.90497 46.13059,-103.03556 103.03556,-103.03556 56.90497,0 103.03556,46.13059 103.03556,103.03556 z"
         sodipodi:ry="103.03556"
         sodipodi:rx="103.03556"
         sodipodi:cy="296.76807"
         sodipodi:cx="-664.68036"
         id="path4581"
         style="fill:none;stroke:#000000;stroke-width:0.63215053;stroke-miterlimit:4;stroke-opacity:1;stroke-dasharray:none"
         sodipodi:type="arc" />
      <path
         transform="matrix(0.65339417,0,0,0.65339417,1325.8364,-142.25402)"
         d="m -561.6448,296.76807 c 0,56.90497 -46.13059,103.03556 -103.03556,103.03556 -56.90497,0 -103.03556,-46.13059 -103.03556,-103.03556 0,-56.90497 46.13059,-103.03556 103.03556,-103.03556 56.90497,0 103.03556,46.13059 103.03556,103.03556 z"
         sodipodi:ry="103.03556"
         sodipodi:rx="103.03556"
         sodipodi:cy="296.76807"
         sodipodi:cx="-664.68036"
         id="path4583"
         style="fill:none;stroke:#000000;stroke-width:0.38261744;stroke-miterlimit:4;stroke-opacity:1;stroke-dasharray:none;display:inline"
         sodipodi:type="arc" />
    </g>
    <g
       id="use4531"
       transform="translate(-257.00268,57.048233)"
       inkscape:tile-x0="-270.06755"
       inkscape:tile-y0="39.437551"
       style="display:inline">
      <path
         transform="matrix(0.79095084,0,0,0.79095084,1417.2676,-183.07645)"
         d="m -561.6448,296.76807 c 0,56.90497 -46.13059,103.03556 -103.03556,103.03556 -56.90497,0 -103.03556,-46.13059 -103.03556,-103.03556 0,-56.90497 46.13059,-103.03556 103.03556,-103.03556 56.90497,0 103.03556,46.13059 103.03556,103.03556 z"
         sodipodi:ry="103.03556"
         sodipodi:rx="103.03556"
         sodipodi:cy="296.76807"
         sodipodi:cx="-664.68036"
         id="path4575"
         style="fill:none;stroke:#000000;stroke-width:0.63215053;stroke-miterlimit:4;stroke-opacity:1;stroke-dasharray:none"
         sodipodi:type="arc" />
      <path
         transform="matrix(0.65339417,0,0,0.65339417,1325.8364,-142.25402)"
         d="m -561.6448,296.76807 c 0,56.90497 -46.13059,103.03556 -103.03556,103.03556 -56.90497,0 -103.03556,-46.13059 -103.03556,-103.03556 0,-56.90497 46.13059,-103.03556 103.03556,-103.03556 56.90497,0 103.03556,46.13059 103.03556,103.03556 z"
         sodipodi:ry="103.03556"
         sodipodi:rx="103.03556"
         sodipodi:cy="296.76807"
         sodipodi:cx="-664.68036"
         id="path4577"
         style="fill:none;stroke:#000000;stroke-width:0.38261744;stroke-miterlimit:4;stroke-opacity:1;stroke-dasharray:none;display:inline"
         sodipodi:type="arc" />
    </g>
    <g
       id="use4533"
       transform="translate(-257.00268,224.04033)"
       inkscape:tile-x0="-270.06755"
       inkscape:tile-y0="39.437551"
       style="display:inline">
      <path
         transform="matrix(0.79095084,0,0,0.79095084,1417.2676,-183.07645)"
         d="m -561.6448,296.76807 c 0,56.90497 -46.13059,103.03556 -103.03556,103.03556 -56.90497,0 -103.03556,-46.13059 -103.03556,-103.03556 0,-56.90497 46.13059,-103.03556 103.03556,-103.03556 56.90497,0 103.03556,46.13059 103.03556,103.03556 z"
         sodipodi:ry="103.03556"
         sodipodi:rx="103.03556"
         sodipodi:cy="296.76807"
         sodipodi:cx="-664.68036"
         id="path4569"
         style="fill:none;stroke:#000000;stroke-width:0.63215053;stroke-miterlimit:4;stroke-opacity:1;stroke-dasharray:none"
         sodipodi:type="arc" />
      <path
         transform="matrix(0.65339417,0,0,0.65339417,1325.8364,-142.25402)"
         d="m -561.6448,296.76807 c 0,56.90497 -46.13059,103.03556 -103.03556,103.03556 -56.90497,0 -103.03556,-46.13059 -103.03556,-103.03556 0,-56.90497 46.13059,-103.03556 103.03556,-103.03556 56.90497,0 103.03556,46.13059 103.03556,103.03556 z"
         sodipodi:ry="103.03556"
         sodipodi:rx="103.03556"
         sodipodi:cy="296.76807"
         sodipodi:cx="-664.68036"
         id="path4571"
         style="fill:none;stroke:#000000;stroke-width:0.38261744;stroke-miterlimit:4;stroke-opacity:1;stroke-dasharray:none;display:inline"
         sodipodi:type="arc" />
    </g>
    <g
       id="use4535"
       transform="translate(-257.00268,391.03246)"
       inkscape:tile-x0="-270.06755"
       inkscape:tile-y0="39.437551"
       style="display:inline">
      <path
         transform="matrix(0.79095084,0,0,0.79095084,1417.2676,-183.07645)"
         d="m -561.6448,296.76807 c 0,56.90497 -46.13059,103.03556 -103.03556,103.03556 -56.90497,0 -103.03556,-46.13059 -103.03556,-103.03556 0,-56.90497 46.13059,-103.03556 103.03556,-103.03556 56.90497,0 103.03556,46.13059 103.03556,103.03556 z"
         sodipodi:ry="103.03556"
         sodipodi:rx="103.03556"
         sodipodi:cy="296.76807"
         sodipodi:cx="-664.68036"
         id="path4563"
         style="fill:none;stroke:#000000;stroke-width:0.63215053;stroke-miterlimit:4;stroke-opacity:1;stroke-dasharray:none"
         sodipodi:type="arc" />
      <path
         transform="matrix(0.65339417,0,0,0.65339417,1325.8364,-142.25402)"
         d="m -561.6448,296.76807 c 0,56.90497 -46.13059,103.03556 -103.03556,103.03556 -56.90497,0 -103.03556,-46.13059 -103.03556,-103.03556 0,-56.90497 46.13059,-103.03556 103.03556,-103.03556 56.90497,0 103.03556,46.13059 103.03556,103.03556 z"
         sodipodi:ry="103.03556"
         sodipodi:rx="103.03556"
         sodipodi:cy="296.76807"
         sodipodi:cx="-664.68036"
         id="path4565"
         style="fill:none;stroke:#000000;stroke-width:0.38261744;stroke-miterlimit:4;stroke-opacity:1;stroke-dasharray:none;display:inline"
         sodipodi:type="arc" />
    </g>
    <g
       id="use4537"
       transform="translate(-257.00268,558.02464)"
       inkscape:tile-x0="-270.06755"
       inkscape:tile-y0="39.437551"
       style="display:inline">
      <path
         transform="matrix(0.79095084,0,0,0.79095084,1417.2676,-183.07645)"
         d="m -561.6448,296.76807 c 0,56.90497 -46.13059,103.03556 -103.03556,103.03556 -56.90497,0 -103.03556,-46.13059 -103.03556,-103.03556 0,-56.90497 46.13059,-103.03556 103.03556,-103.03556 56.90497,0 103.03556,46.13059 103.03556,103.03556 z"
         sodipodi:ry="103.03556"
         sodipodi:rx="103.03556"
         sodipodi:cy="296.76807"
         sodipodi:cx="-664.68036"
         id="path4557"
         style="fill:none;stroke:#000000;stroke-width:0.63215053;stroke-miterlimit:4;stroke-opacity:1;stroke-dasharray:none"
         sodipodi:type="arc" />
      <path
         transform="matrix(0.65339417,0,0,0.65339417,1325.8364,-142.25402)"
         d="m -561.6448,296.76807 c 0,56.90497 -46.13059,103.03556 -103.03556,103.03556 -56.90497,0 -103.03556,-46.13059 -103.03556,-103.03556 0,-56.90497 46.13059,-103.03556 103.03556,-103.03556 56.90497,0 103.03556,46.13059 103.03556,103.03556 z"
         sodipodi:ry="103.03556"
         sodipodi:rx="103.03556"
         sodipodi:cy="296.76807"
         sodipodi:cx="-664.68036"
         id="path4559"
         style="fill:none;stroke:#000000;stroke-width:0.38261744;stroke-miterlimit:4;stroke-opacity:1;stroke-dasharray:none;display:inline"
         sodipodi:type="arc" />
    </g>
    <g
       id="use4539"
       transform="translate(-257.00268,725.01678)"
       inkscape:tile-x0="-270.06755"
       inkscape:tile-y0="39.437551"
       style="display:inline">
      <path
         transform="matrix(0.79095084,0,0,0.79095084,1417.2676,-183.07645)"
         d="m -561.6448,296.76807 c 0,56.90497 -46.13059,103.03556 -103.03556,103.03556 -56.90497,0 -103.03556,-46.13059 -103.03556,-103.03556 0,-56.90497 46.13059,-103.03556 103.03556,-103.03556 56.90497,0 103.03556,46.13059 103.03556,103.03556 z"
         sodipodi:ry="103.03556"
         sodipodi:rx="103.03556"
         sodipodi:cy="296.76807"
         sodipodi:cx="-664.68036"
         id="path4551"
         style="fill:none;stroke:#000000;stroke-width:0.63215053;stroke-miterlimit:4;stroke-opacity:1;stroke-dasharray:none"
         sodipodi:type="arc" />
      <path
         transform="matrix(0.65339417,0,0,0.65339417,1325.8364,-142.25402)"
         d="m -561.6448,296.76807 c 0,56.90497 -46.13059,103.03556 -103.03556,103.03556 -56.90497,0 -103.03556,-46.13059 -103.03556,-103.03556 0,-56.90497 46.13059,-103.03556 103.03556,-103.03556 56.90497,0 103.03556,46.13059 103.03556,103.03556 z"
         sodipodi:ry="103.03556"
         sodipodi:rx="103.03556"
         sodipodi:cy="296.76807"
         sodipodi:cx="-664.68036"
         id="path4553"
         style="fill:none;stroke:#000000;stroke-width:0.38261744;stroke-miterlimit:4;stroke-opacity:1;stroke-dasharray:none;display:inline"
         sodipodi:type="arc" />
    </g>
    <g
       id="use4541"
       transform="translate(-257.00268,892.00891)"
       inkscape:tile-x0="-270.06755"
       inkscape:tile-y0="39.437551"
       style="display:inline">
      <path
         transform="matrix(0.79095084,0,0,0.79095084,1417.2676,-183.07645)"
         d="m -561.6448,296.76807 c 0,56.90497 -46.13059,103.03556 -103.03556,103.03556 -56.90497,0 -103.03556,-46.13059 -103.03556,-103.03556 0,-56.90497 46.13059,-103.03556 103.03556,-103.03556 56.90497,0 103.03556,46.13059 103.03556,103.03556 z"
         sodipodi:ry="103.03556"
         sodipodi:rx="103.03556"
         sodipodi:cy="296.76807"
         sodipodi:cx="-664.68036"
         id="path4545"
         style="fill:none;stroke:#000000;stroke-width:0.63215053;stroke-miterlimit:4;stroke-opacity:1;stroke-dasharray:none"
         sodipodi:type="arc" />
      <path
         transform="matrix(0.65339417,0,0,0.65339417,1325.8364,-142.25402)"
         d="m -561.6448,296.76807 c 0,56.90497 -46.13059,103.03556 -103.03556,103.03556 -56.90497,0 -103.03556,-46.13059 -103.03556,-103.03556 0,-56.90497 46.13059,-103.03556 103.03556,-103.03556 56.90497,0 103.03556,46.13059 103.03556,103.03556 z"
         sodipodi:ry="103.03556"
         sodipodi:rx="103.03556"
         sodipodi:cy="296.76807"
         sodipodi:cx="-664.68036"
         id="path4547"
         style="fill:none;stroke:#000000;stroke-width:0.38261744;stroke-miterlimit:4;stroke-opacity:1;stroke-dasharray:none;display:inline"
         sodipodi:type="arc" />
    </g>
  </g>
</svg>
